<?xml version="1.0" encoding="utf-8"?>
<!-- Generator: Adobe Illustrator 22.0.0, SVG Export Plug-In . SVG Version: 6.00 Build 0)  -->
<svg version="1.1" id="Layer_1" xmlns="http://www.w3.org/2000/svg" xmlns:xlink="http://www.w3.org/1999/xlink" x="0px" y="0px"
	 viewBox="0 0 1427.8 753.8" style="enable-background:new 0 0 1427.8 753.8;" xml:space="preserve">
<style type="text/css">
	.st0{opacity:0.2;}
	.st1{fill:#158894;}
	.st2{fill:#A7D8D8;}
	.st3{fill:#FFFFFF;}
	.st4{fill:#A9DDE0;}
	.st5{fill:none;}
	.st6{font-family:'Roboto-Regular';}
	.st7{font-size:9.834px;}
	.st8{font-size:12.7842px;}
</style>
<g class="st0">
	<path class="st1" d="M1132.7,133.2l0.5,0.6C1133.1,133.6,1132.9,133.4,1132.7,133.2z"/>
	<path class="st1" d="M1133.2,133.8c0.3,0.4,0.4,0.9,0.3,1.5c-2.3,17.8-19.4,37.8-22.9,31.2l-40.2,42.1l-49.6,54.9
		c4.5,3.8-3.4,18.1-3.4,24.4c0,11.5,3.7,6.9-7.8,6.9s-18.1,9.2-18.1-2.3c0-1.3,0.1-2.6,0.4-3.8l-102.1,46.1
		c-2.5,4.3-0.8,16.9-6,16.9c-2.3,0-4.4-0.5-6.3-1.5c-19.6,24.9-39.2,49.7-58.7,74.6c6.6,5.5,10.8,13.8,10.8,23.1
		c0,16.6-13.5,30.1-30.1,30.1s-30.1-13.5-30.1-30.1c0-2.5,0.3-5,0.9-7.4c-30.3-12.5-60.6-25-90.9-37.5c-3,4.7-8.3,7.9-14.3,7.9
		c-2.1,0-4.1-0.4-6-1.1c-14.4,24.3-28.8,48.7-43.3,73c-15.2,25.6-30.3,51.2-45.5,76.8c12.8,8.6,21.3,23.3,21.3,39.9
		c0,26.6-21.5,48.1-48.1,48.1c-10.5,0-20.2-3.4-28.1-9.1L415,636L294,755h1136V165l-49-35.2l-99,69.2L1133.2,133.8z"/>
</g>
<g>
	<path class="st2" d="M546,600.6c23.3-39.2,46.5-78.5,69.8-117.7c17.3-29.1,34.5-58.3,51.8-87.4c-1.1,0.5-2.2,0.9-3.3,1.4
		c43,17.7,86,35.5,129,53.2c0.8,0.3,1.7,0.7,2.5,1c0.9,0.4,2.3,0,2.9-0.8c28.6-36.3,57.3-72.7,85.9-109c0.4-0.5,0.9-1.1,1.3-1.6
		c-0.3,0.4-0.7,0.4,0.4,0c3-1.3,5.9-2.6,8.9-4c12.3-5.5,24.6-11,36.9-16.4c23.1-10.3,46.3-20.6,69.4-30.9c3.4-1.5,5.8-5.4,8.2-8
		c7.9-8.7,15.8-17.5,23.6-26.2c20.7-22.9,41.4-45.9,62.1-68.8c6.8-7.6,13.7-15.1,20.5-22.7c2.5-2.8-1.6-7-4.2-4.2
		c-32.8,36.3-65.6,72.7-98.4,109c-4.6,5.1-9.3,10.3-13.9,15.4c-0.7,0.7,0.9-0.4,0,0s-1.8,0.8-2.7,1.2c-4,1.8-7.9,3.5-11.9,5.3
		c-27.2,12.1-54.4,24.2-81.5,36.3c-6.9,3.1-13.9,6.2-20.8,9.3c-1.2,0.5-2.2,2.4-3,3.4c-2.6,3.3-5.2,6.7-7.9,10
		c-18.5,23.5-37,47-55.5,70.5c-7.2,9.1-14.4,18.2-21.6,27.4c1-0.3,1.9-0.5,2.9-0.8c-43-17.7-86-35.5-129-53.2
		c-0.8-0.3-1.7-0.7-2.5-1c-1.2-0.5-2.7,0.3-3.3,1.4c-23.3,39.2-46.5,78.5-69.8,117.7c-17.3,29.1-34.5,58.3-51.8,87.4
		C538.9,600.9,544,603.9,546,600.6L546,600.6z"/>
</g>
<path class="st3" d="M599.9,593.5c0,29.4-23.8,53.3-53.3,53.3c-29.4,0-53.3-23.8-53.3-53.3c0-29.4,23.8-53.3,53.3-53.3
	C576,540.2,599.9,564.1,599.9,593.5z"/>
<path class="st4" d="M582.9,592.9c0,20.1-16.3,36.3-36.3,36.3s-36.3-16.3-36.3-36.3c0-20.1,16.3-36.3,36.3-36.3
	C566.7,556.6,582.9,572.9,582.9,592.9z"/>
<path class="st3" d="M836.4,447.5c0,21.9-17.8,39.7-39.7,39.7S757,469.4,757,447.5s17.8-39.7,39.7-39.7
	C818.7,407.8,836.4,425.6,836.4,447.5z"/>
<path class="st4" d="M686.8,396c0,11.5-9.4,20.9-20.9,20.9S645,407.5,645,396s9.4-20.9,20.9-20.9C677.5,375.1,686.8,384.5,686.8,396
	z"/>
<path class="st4" d="M824.9,447.4c0,15.5-12.5,28-28,28s-28-12.5-28-28s12.5-28,28-28S824.9,432,824.9,447.4z"/>
<path class="st3" d="M1033,281.1c0,16.6-13.5,30.1-30.1,30.1s-30.1-13.5-30.1-30.1s13.5-30.1,30.1-30.1S1033,264.5,1033,281.1z"/>
<path class="st4" d="M900.1,338.6c0,9-7.3,16.3-16.3,16.3s-16.3-7.3-16.3-16.3s7.3-16.3,16.3-16.3
	C892.8,322.3,900.1,329.6,900.1,338.6z"/>
<circle class="st4" cx="1002.3" cy="280.5" r="20.5"/>
<path class="st3" d="M1166.4,150.6c0,16.6-13.5,30.1-30.1,30.1s-30.1-13.5-30.1-30.1s13.5-30.1,30.1-30.1
	C1153,120.5,1166.4,134,1166.4,150.6z"/>
<circle class="st4" cx="1135.8" cy="150" r="20.5"/>
<g>
	<rect x="621.8" y="584.4" class="st5" width="122.4" height="42.3"/>
	<text transform="matrix(1 0 0 1 621.7644 591.7959)" class="st3 st6 st7">Data visualization.. Data </text>
	<text transform="matrix(1 0 0 1 621.7644 603.5959)" class="st3 st6 st7">visualizationData visualiza</text>
	<text transform="matrix(1 0 0 1 737.1644 603.5959)" class="st3 st6 st7">-</text>
	<text transform="matrix(1 0 0 1 621.7644 615.3959)" class="st3 st6 st7">tion..Data visualization</text>
	<rect x="621.8" y="564.8" class="st5" width="86.4" height="14.8"/>
	<text transform="matrix(1 0 0 1 621.7644 574.3828)" class="st3 st6 st8">Ustock</text>
</g>
<g>
	<rect x="853.8" y="439.5" class="st5" width="122.4" height="42.3"/>
	<text transform="matrix(1 0 0 1 853.8484 446.8682)" class="st3 st6 st7">Data visualization.. Data </text>
	<text transform="matrix(1 0 0 1 853.8484 458.6682)" class="st3 st6 st7">visualizationData visualiza</text>
	<text transform="matrix(1 0 0 1 969.2484 458.6682)" class="st3 st6 st7">-</text>
	<text transform="matrix(1 0 0 1 853.8484 470.4682)" class="st3 st6 st7">tion..Data visualization</text>
	<rect x="853.8" y="419.9" class="st5" width="86.4" height="14.8"/>
	<text transform="matrix(1 0 0 1 853.8484 429.4551)" class="st3 st6 st8">Ustock</text>
</g>
<g>
	<rect x="1052.6" y="274.6" class="st5" width="122.4" height="42.3"/>
	<text transform="matrix(1 0 0 1 1052.6082 281.936)" class="st3 st6 st7">Data visualization.. Data </text>
	<text transform="matrix(1 0 0 1 1052.6082 293.736)" class="st3 st6 st7">visualizationData visualiza</text>
	<text transform="matrix(1 0 0 1 1168.0082 293.736)" class="st3 st6 st7">-</text>
	<text transform="matrix(1 0 0 1 1052.6082 305.536)" class="st3 st6 st7">tion..Data visualization</text>
	<rect x="1052.6" y="254.9" class="st5" width="86.4" height="14.8"/>
	<text transform="matrix(1 0 0 1 1052.6082 264.5244)" class="st3 st6 st8">Ustock</text>
</g>
</svg>
