<?xml version="1.0" encoding="utf-8"?>
<!-- Generator: Adobe Illustrator 22.0.0, SVG Export Plug-In . SVG Version: 6.00 Build 0)  -->
<svg version="1.1" id="Layer_1" xmlns="http://www.w3.org/2000/svg" xmlns:xlink="http://www.w3.org/1999/xlink" x="0px" y="0px"
	 viewBox="0 0 1427.8 753.8" style="enable-background:new 0 0 1427.8 753.8;" xml:space="preserve">
<style type="text/css">
	.st0{opacity:0.2;fill:#158894;}
	.st1{opacity:0.2;}
	.st2{fill:#158894;}
	.st3{fill:#56B3B7;}
	.st4{fill:#FFFFFF;}
	.st5{fill:none;}
	.st6{font-family:'Roboto-Regular';}
	.st7{font-size:9.834px;}
	.st8{font-size:12.7842px;}
</style>
<path class="st0" d="M590.3,754.3l-184.9-218l-20.1,119.5l-255-3L8.5,754.8C8.5,754.8,591.6,757.5,590.3,754.3z"/>
<path class="st0" d="M1429.5,10.9l-70.7,84l-154.5,42l-115.5-46.5l340.7,439.7C1429.5,530.1,1430.7,9.6,1429.5,10.9z"/>
<g class="st1">
	<path class="st2" d="M1069.7,76.2l0.5,0.6C1070.1,76.6,1069.9,76.4,1069.7,76.2z"/>
	<path class="st2" d="M1070.2,76.8c0.3,0.4,0.4,0.9,0.3,1.5c-2.3,17.8-19.4,37.8-22.9,31.2l-40.2,42.1l-49.6,54.9
		c4.5,3.8-3.4,18.1-3.4,24.4c0,11.5,3.7,6.9-7.8,6.9c-11.5,0-18.1,9.2-18.1-2.3c0-1.3,0.1-2.6,0.4-3.8l-102.1,46.1
		c-2.5,4.3-0.8,16.9-6,16.9c-2.3,0-4.4-0.5-6.3-1.5c-19.6,24.9-39.2,49.7-58.7,74.6c6.6,5.5,10.8,13.8,10.8,23.1
		c0,16.6-13.5,30.1-30.1,30.1c-16.6,0-30.1-13.5-30.1-30.1c0-2.5,0.3-5,0.9-7.4c-30.3-12.5-60.6-25-90.9-37.5
		c-3,4.7-8.3,7.9-14.3,7.9c-2.1,0-4.1-0.4-6-1.1c-14.4,24.3-28.8,48.7-43.3,73c-15.2,25.6-30.3,51.2-45.5,76.8
		c12.8,8.6,21.3,23.3,21.3,39.9c0,26.6-21.5,48.1-48.1,48.1c-10.5,0-20.2-3.4-28.1-9.1l146.3,172.6h827.7l1.5-216.9L1070.2,76.8z"/>
</g>
<g>
	<path class="st3" d="M483,543.6c23.3-39.2,46.5-78.5,69.8-117.7c17.3-29.1,34.5-58.3,51.8-87.4c-1.1,0.5-2.2,0.9-3.3,1.4
		c43,17.7,86,35.5,129,53.2c0.8,0.3,1.7,0.7,2.5,1c0.9,0.4,2.3,0,2.9-0.8c28.6-36.3,57.3-72.7,85.9-109c0.4-0.5,0.9-1.1,1.3-1.6
		c-0.3,0.4-0.7,0.4,0.4,0c3-1.3,5.9-2.6,8.9-4c12.3-5.5,24.6-11,36.9-16.4c23.1-10.3,46.3-20.6,69.4-30.9c3.4-1.5,5.8-5.4,8.2-8
		c7.9-8.7,15.8-17.5,23.6-26.2c20.7-22.9,41.4-45.9,62.1-68.8c6.8-7.6,13.7-15.1,20.5-22.7c2.5-2.8-1.6-7-4.2-4.2
		c-32.8,36.3-65.6,72.7-98.4,109c-4.6,5.1-9.3,10.3-13.9,15.4c-0.7,0.7,0.9-0.4,0,0c-0.9,0.4-1.8,0.8-2.7,1.2
		c-4,1.8-7.9,3.5-11.9,5.3c-27.2,12.1-54.4,24.2-81.5,36.3c-6.9,3.1-13.9,6.2-20.8,9.3c-1.2,0.5-2.2,2.4-3,3.4
		c-2.6,3.3-5.2,6.7-7.9,10c-18.5,23.5-37,47-55.5,70.5c-7.2,9.1-14.4,18.2-21.6,27.4c1-0.3,1.9-0.5,2.9-0.8
		c-43-17.7-86-35.5-129-53.2c-0.8-0.3-1.7-0.7-2.5-1c-1.2-0.5-2.7,0.3-3.3,1.4c-23.3,39.2-46.5,78.5-69.8,117.7
		c-17.3,29.1-34.5,58.3-51.8,87.4C475.9,543.9,481,546.9,483,543.6L483,543.6z"/>
</g>
<path class="st4" d="M536.9,536.5c0,29.4-23.8,53.3-53.3,53.3c-29.4,0-53.3-23.8-53.3-53.3c0-29.4,23.8-53.3,53.3-53.3
	C513,483.2,536.9,507.1,536.9,536.5z"/>
<path class="st3" d="M519.9,535.9c0,20.1-16.3,36.3-36.3,36.3c-20,0-36.3-16.3-36.3-36.3c0-20.1,16.3-36.3,36.3-36.3
	C503.7,499.6,519.9,515.9,519.9,535.9z"/>
<path class="st4" d="M773.4,390.5c0,21.9-17.8,39.7-39.7,39.7c-21.9,0-39.7-17.8-39.7-39.7c0-21.9,17.8-39.7,39.7-39.7
	C755.7,350.8,773.4,368.6,773.4,390.5z"/>
<path class="st3" d="M623.8,339c0,11.5-9.4,20.9-20.9,20.9c-11.5,0-20.9-9.4-20.9-20.9c0-11.5,9.4-20.9,20.9-20.9
	C614.5,318.1,623.8,327.5,623.8,339z"/>
<path class="st3" d="M761.9,390.4c0,15.5-12.5,28-28,28c-15.5,0-28-12.5-28-28c0-15.5,12.5-28,28-28
	C749.4,362.4,761.9,375,761.9,390.4z"/>
<path class="st4" d="M970,224.1c0,16.6-13.5,30.1-30.1,30.1c-16.6,0-30.1-13.5-30.1-30.1c0-16.6,13.5-30.1,30.1-30.1
	C956.5,194,970,207.5,970,224.1z"/>
<path class="st3" d="M837.1,281.6c0,9-7.3,16.3-16.3,16.3c-9,0-16.3-7.3-16.3-16.3c0-9,7.3-16.3,16.3-16.3
	C829.8,265.3,837.1,272.6,837.1,281.6z"/>
<circle class="st3" cx="939.3" cy="223.5" r="20.5"/>
<path class="st4" d="M1103.4,93.6c0,16.6-13.5,30.1-30.1,30.1c-16.6,0-30.1-13.5-30.1-30.1c0-16.6,13.5-30.1,30.1-30.1
	C1090,63.5,1103.4,77,1103.4,93.6z"/>
<circle class="st3" cx="1072.8" cy="93" r="20.5"/>
<g>
	<rect x="558.8" y="527.4" class="st5" width="122.4" height="42.3"/>
	<text transform="matrix(1 0 0 1 558.7644 534.7959)"><tspan x="0" y="0" class="st4 st6 st7">Data visualization.. Data </tspan><tspan x="0" y="11.8" class="st4 st6 st7">visualizationData visualiza</tspan><tspan x="115.4" y="11.8" class="st4 st6 st7">-</tspan><tspan x="0" y="23.6" class="st4 st6 st7">tion..Data visualization</tspan></text>
	<rect x="558.8" y="507.8" class="st5" width="86.4" height="14.8"/>
	<text transform="matrix(1 0 0 1 558.7644 517.3828)" class="st4 st6 st8">Ustock</text>
</g>
<g>
	<rect x="790.8" y="382.5" class="st5" width="122.4" height="42.3"/>
	<text transform="matrix(1 0 0 1 790.8484 389.8682)"><tspan x="0" y="0" class="st4 st6 st7">Data visualization.. Data </tspan><tspan x="0" y="11.8" class="st4 st6 st7">visualizationData visualiza</tspan><tspan x="115.4" y="11.8" class="st4 st6 st7">-</tspan><tspan x="0" y="23.6" class="st4 st6 st7">tion..Data visualization</tspan></text>
	<rect x="790.8" y="362.9" class="st5" width="86.4" height="14.8"/>
	<text transform="matrix(1 0 0 1 790.8484 372.4551)" class="st4 st6 st8">Ustock</text>
</g>
<g>
	<rect x="989.6" y="217.6" class="st5" width="122.4" height="42.3"/>
	<text transform="matrix(1 0 0 1 989.6082 224.936)"><tspan x="0" y="0" class="st4 st6 st7">Data visualization.. Data </tspan><tspan x="0" y="11.8" class="st4 st6 st7">visualizationData visualiza</tspan><tspan x="115.4" y="11.8" class="st4 st6 st7">-</tspan><tspan x="0" y="23.6" class="st4 st6 st7">tion..Data visualization</tspan></text>
	<rect x="989.6" y="197.9" class="st5" width="86.4" height="14.8"/>
	<text transform="matrix(1 0 0 1 989.6082 207.5244)" class="st4 st6 st8">Ustock</text>
</g>
</svg>
