<?xml version="1.0" encoding="UTF-8" standalone="no"?>
<!DOCTYPE svg PUBLIC "-//W3C//DTD SVG 1.1//EN"
 "http://www.w3.org/Graphics/SVG/1.1/DTD/svg11.dtd">
<!-- Generated by graphviz version 2.40.1 (20161225.0304)
 -->
<!-- Title: dependencies Pages: 1 -->
<svg width="6984pt" height="284pt"
 viewBox="0.00 0.00 6984.00 284.00" xmlns="http://www.w3.org/2000/svg" xmlns:xlink="http://www.w3.org/1999/xlink">
<g id="graph0" class="graph" transform="scale(1 1) rotate(0) translate(4 280)">
<title>dependencies</title>
<polygon fill="#ffffff" stroke="transparent" points="-4,4 -4,-280 6980,-280 6980,4 -4,4"/>
<text text-anchor="start" x="3467.0091" y="-42.4" font-family="sans-serif" font-weight="bold" font-size="14.00" fill="#000000">Legend</text>
<polygon fill="#ffffb3" stroke="transparent" points="3254,-10 3254,-30 3274,-30 3274,-10 3254,-10"/>
<text text-anchor="start" x="3277.629" y="-15.4" font-family="sans-serif" font-size="14.00" fill="#000000"> &#160;Declarations</text>
<polygon fill="#8dd3c7" stroke="transparent" points="3367,-10 3367,-30 3387,-30 3387,-10 3367,-10"/>
<text text-anchor="start" x="3390.7251" y="-15.4" font-family="sans-serif" font-size="14.00" fill="#000000"> &#160;Module</text>
<polygon fill="#80b1d3" stroke="transparent" points="3453,-10 3453,-30 3473,-30 3473,-10 3453,-10"/>
<text text-anchor="start" x="3476.7812" y="-15.4" font-family="sans-serif" font-size="14.00" fill="#000000"> &#160;Bootstrap</text>
<polygon fill="#fdb462" stroke="transparent" points="3550,-10 3550,-30 3570,-30 3570,-10 3550,-10"/>
<text text-anchor="start" x="3573.6732" y="-15.4" font-family="sans-serif" font-size="14.00" fill="#000000"> &#160;Providers</text>
<polygon fill="#fb8072" stroke="transparent" points="3646,-10 3646,-30 3666,-30 3666,-10 3646,-10"/>
<text text-anchor="start" x="3669.7258" y="-15.4" font-family="sans-serif" font-size="14.00" fill="#000000"> &#160;Exports</text>
<g id="clust1" class="cluster">
<title>cluster_AppModule</title>
<polygon fill="none" stroke="#000000" stroke-dasharray="1,5" points="8,-70 8,-268 6968,-268 6968,-70 8,-70"/>
</g>
<g id="clust2" class="cluster">
<title>cluster_AppModule_declarations</title>
<polygon fill="none" stroke="#000000" points="1931,-78 1931,-130 6960,-130 6960,-78 1931,-78"/>
</g>
<g id="clust33" class="cluster">
<title>cluster_AppModule_imports</title>
<polygon fill="none" stroke="#000000" points="1809,-78 1809,-130 1923,-130 1923,-78 1809,-78"/>
</g>
<g id="clust35" class="cluster">
<title>cluster_AppModule_bootstrap</title>
<polygon fill="none" stroke="#000000" points="3638,-208 3638,-260 3768,-260 3768,-208 3638,-208"/>
</g>
<g id="clust36" class="cluster">
<title>cluster_AppModule_providers</title>
<polygon fill="none" stroke="#000000" points="16,-78 16,-130 1801,-130 1801,-78 16,-78"/>
</g>
<!-- AppComponent -->
<g id="node1" class="node">
<title>AppComponent</title>
<polygon fill="#ffffb3" stroke="#000000" points="6951.9399,-122 6846.0601,-122 6846.0601,-86 6951.9399,-86 6951.9399,-122"/>
<text text-anchor="middle" x="6899" y="-99.8" font-family="Times,serif" font-size="14.00" fill="#000000">AppComponent</text>
</g>
<!-- AppModule -->
<g id="node31" class="node">
<title>AppModule</title>
<polygon fill="#8dd3c7" stroke="#000000" points="3744.6571,-187 3741.6571,-191 3720.6571,-191 3717.6571,-187 3661.3429,-187 3661.3429,-151 3744.6571,-151 3744.6571,-187"/>
<text text-anchor="middle" x="3703" y="-164.8" font-family="Times,serif" font-size="14.00" fill="#000000">AppModule</text>
</g>
<!-- AppComponent&#45;&gt;AppModule -->
<g id="edge1" class="edge">
<title>AppComponent&#45;&gt;AppModule</title>
<path fill="none" stroke="#000000" d="M6899,-122.1985C6899,-146.3563 6899,-186 6899,-186 6899,-186 3754.8729,-186 3754.8729,-186"/>
<polygon fill="#000000" stroke="#000000" points="3754.8729,-182.5001 3744.8729,-186 3754.8728,-189.5001 3754.8729,-182.5001"/>
</g>
<!-- BgCounterComponent -->
<g id="node2" class="node">
<title>BgCounterComponent</title>
<polygon fill="#ffffb3" stroke="#000000" points="6828.2716,-122 6685.7284,-122 6685.7284,-86 6828.2716,-86 6828.2716,-122"/>
<text text-anchor="middle" x="6757" y="-99.8" font-family="Times,serif" font-size="14.00" fill="#000000">BgCounterComponent</text>
</g>
<!-- BgCounterComponent&#45;&gt;AppModule -->
<g id="edge2" class="edge">
<title>BgCounterComponent&#45;&gt;AppModule</title>
<path fill="none" stroke="#000000" d="M6757,-122.1532C6757,-145.7566 6757,-184 6757,-184 6757,-184 3754.7219,-184 3754.7219,-184"/>
<polygon fill="#000000" stroke="#000000" points="3754.7219,-180.5001 3744.7219,-184 3754.7218,-187.5001 3754.7219,-180.5001"/>
</g>
<!-- SearchBoxComponent -->
<g id="node3" class="node">
<title>SearchBoxComponent</title>
<polygon fill="#ffffb3" stroke="#000000" points="6667.2562,-122 6524.7438,-122 6524.7438,-86 6667.2562,-86 6667.2562,-122"/>
<text text-anchor="middle" x="6596" y="-99.8" font-family="Times,serif" font-size="14.00" fill="#000000">SearchBoxComponent</text>
</g>
<!-- SearchBoxComponent&#45;&gt;AppModule -->
<g id="edge3" class="edge">
<title>SearchBoxComponent&#45;&gt;AppModule</title>
<path fill="none" stroke="#000000" d="M6596,-122.0908C6596,-145.1328 6596,-182 6596,-182 6596,-182 3754.7314,-182 3754.7314,-182"/>
<polygon fill="#000000" stroke="#000000" points="3754.7314,-178.5001 3744.7314,-182 3754.7314,-185.5001 3754.7314,-178.5001"/>
</g>
<!-- UGuageComponent -->
<g id="node4" class="node">
<title>UGuageComponent</title>
<polygon fill="#ffffb3" stroke="#000000" points="6506.9748,-122 6379.0252,-122 6379.0252,-86 6506.9748,-86 6506.9748,-122"/>
<text text-anchor="middle" x="6443" y="-99.8" font-family="Times,serif" font-size="14.00" fill="#000000">UGuageComponent</text>
</g>
<!-- UGuageComponent&#45;&gt;AppModule -->
<g id="edge4" class="edge">
<title>UGuageComponent&#45;&gt;AppModule</title>
<path fill="none" stroke="#000000" d="M6443,-122.2479C6443,-145.0179 6443,-181 6443,-181 6443,-181 3754.6704,-181 3754.6704,-181"/>
<polygon fill="#000000" stroke="#000000" points="3754.6704,-177.5001 3744.6704,-181 3754.6704,-184.5001 3754.6704,-177.5001"/>
</g>
<!-- FocusDirective -->
<g id="node5" class="node">
<title>FocusDirective</title>
<polygon fill="#ffffb3" stroke="#000000" points="6360.5257,-122 6259.4743,-122 6259.4743,-86 6360.5257,-86 6360.5257,-122"/>
<text text-anchor="middle" x="6310" y="-99.8" font-family="Times,serif" font-size="14.00" fill="#000000">FocusDirective</text>
</g>
<!-- FocusDirective&#45;&gt;AppModule -->
<g id="edge5" class="edge">
<title>FocusDirective&#45;&gt;AppModule</title>
<path fill="none" stroke="#000000" d="M6310,-122.1554C6310,-144.3519 6310,-179 6310,-179 6310,-179 3754.7405,-179 3754.7405,-179"/>
<polygon fill="#000000" stroke="#000000" points="3754.7405,-175.5001 3744.7405,-179 3754.7405,-182.5001 3754.7405,-175.5001"/>
</g>
<!-- UTableComponent -->
<g id="node6" class="node">
<title>UTableComponent</title>
<polygon fill="#ffffb3" stroke="#000000" points="6241.8118,-122 6118.1882,-122 6118.1882,-86 6241.8118,-86 6241.8118,-122"/>
<text text-anchor="middle" x="6180" y="-99.8" font-family="Times,serif" font-size="14.00" fill="#000000">UTableComponent</text>
</g>
<!-- UTableComponent&#45;&gt;AppModule -->
<g id="edge6" class="edge">
<title>UTableComponent&#45;&gt;AppModule</title>
<path fill="none" stroke="#000000" d="M6180,-122.0449C6180,-143.6623 6180,-177 6180,-177 6180,-177 3754.6957,-177 3754.6957,-177"/>
<polygon fill="#000000" stroke="#000000" points="3754.6957,-173.5001 3744.6957,-177 3754.6957,-180.5001 3754.6957,-173.5001"/>
</g>
<!-- USparklineComponent -->
<g id="node7" class="node">
<title>USparklineComponent</title>
<polygon fill="#ffffb3" stroke="#000000" points="6100.5926,-122 5955.4074,-122 5955.4074,-86 6100.5926,-86 6100.5926,-122"/>
<text text-anchor="middle" x="6028" y="-99.8" font-family="Times,serif" font-size="14.00" fill="#000000">USparklineComponent</text>
</g>
<!-- USparklineComponent&#45;&gt;AppModule -->
<g id="edge7" class="edge">
<title>USparklineComponent&#45;&gt;AppModule</title>
<path fill="none" stroke="#000000" d="M6028,-122.2843C6028,-143.3211 6028,-175 6028,-175 6028,-175 3754.8391,-175 3754.8391,-175"/>
<polygon fill="#000000" stroke="#000000" points="3754.8391,-171.5001 3744.8391,-175 3754.839,-178.5001 3754.8391,-171.5001"/>
</g>
<!-- USplineComponent -->
<g id="node8" class="node">
<title>USplineComponent</title>
<polygon fill="#ffffb3" stroke="#000000" points="5937.7176,-122 5810.2824,-122 5810.2824,-86 5937.7176,-86 5937.7176,-122"/>
<text text-anchor="middle" x="5874" y="-99.8" font-family="Times,serif" font-size="14.00" fill="#000000">USplineComponent</text>
</g>
<!-- USplineComponent&#45;&gt;AppModule -->
<g id="edge8" class="edge">
<title>USplineComponent&#45;&gt;AppModule</title>
<path fill="none" stroke="#000000" d="M5874,-122.0267C5874,-142.7672 5874,-174 5874,-174 5874,-174 3754.9103,-174 3754.9103,-174"/>
<polygon fill="#000000" stroke="#000000" points="3754.9103,-170.5001 3744.9103,-174 3754.9102,-177.5001 3754.9103,-170.5001"/>
</g>
<!-- UTextComponent -->
<g id="node9" class="node">
<title>UTextComponent</title>
<polygon fill="#ffffb3" stroke="#000000" points="5792.5968,-122 5675.4032,-122 5675.4032,-86 5792.5968,-86 5792.5968,-122"/>
<text text-anchor="middle" x="5734" y="-99.8" font-family="Times,serif" font-size="14.00" fill="#000000">UTextComponent</text>
</g>
<!-- UTextComponent&#45;&gt;AppModule -->
<g id="edge9" class="edge">
<title>UTextComponent&#45;&gt;AppModule</title>
<path fill="none" stroke="#000000" d="M5734,-122.2228C5734,-142.3652 5734,-172 5734,-172 5734,-172 3754.9541,-172 3754.9541,-172"/>
<polygon fill="#000000" stroke="#000000" points="3754.9542,-168.5001 3744.9541,-172 3754.9541,-175.5001 3754.9542,-168.5001"/>
</g>
<!-- CounterSparklineComponent -->
<g id="node10" class="node">
<title>CounterSparklineComponent</title>
<polygon fill="#ffffb3" stroke="#000000" points="5657.0884,-122 5476.9116,-122 5476.9116,-86 5657.0884,-86 5657.0884,-122"/>
<text text-anchor="middle" x="5567" y="-99.8" font-family="Times,serif" font-size="14.00" fill="#000000">CounterSparklineComponent</text>
</g>
<!-- CounterSparklineComponent&#45;&gt;AppModule -->
<g id="edge10" class="edge">
<title>CounterSparklineComponent&#45;&gt;AppModule</title>
<path fill="none" stroke="#000000" d="M5567,-122.0348C5567,-141.5762 5567,-170 5567,-170 5567,-170 3754.989,-170 3754.989,-170"/>
<polygon fill="#000000" stroke="#000000" points="3754.9891,-166.5001 3744.989,-170 3754.989,-173.5001 3754.9891,-166.5001"/>
</g>
<!-- BaseTemplateComponent -->
<g id="node11" class="node">
<title>BaseTemplateComponent</title>
<polygon fill="#ffffb3" stroke="#000000" points="5458.9115,-122 5297.0885,-122 5297.0885,-86 5458.9115,-86 5458.9115,-122"/>
<text text-anchor="middle" x="5378" y="-99.8" font-family="Times,serif" font-size="14.00" fill="#000000">BaseTemplateComponent</text>
</g>
<!-- BaseTemplateComponent&#45;&gt;AppModule -->
<g id="edge11" class="edge">
<title>BaseTemplateComponent&#45;&gt;AppModule</title>
<path fill="none" stroke="#000000" d="M5378,-122.1061C5378,-141.3391 5378,-169 5378,-169 5378,-169 3754.8226,-169 3754.8226,-169"/>
<polygon fill="#000000" stroke="#000000" points="3754.8227,-165.5001 3744.8226,-169 3754.8226,-172.5001 3754.8227,-165.5001"/>
</g>
<!-- WidgetTemplateComponent -->
<g id="node12" class="node">
<title>WidgetTemplateComponent</title>
<polygon fill="#ffffb3" stroke="#000000" points="5279.9115,-122 5104.0885,-122 5104.0885,-86 5279.9115,-86 5279.9115,-122"/>
<text text-anchor="middle" x="5192" y="-99.8" font-family="Times,serif" font-size="14.00" fill="#000000">WidgetTemplateComponent</text>
</g>
<!-- WidgetTemplateComponent&#45;&gt;AppModule -->
<g id="edge12" class="edge">
<title>WidgetTemplateComponent&#45;&gt;AppModule</title>
<path fill="none" stroke="#000000" d="M5192,-122.2222C5192,-140.8285 5192,-167 5192,-167 5192,-167 3754.7706,-167 3754.7706,-167"/>
<polygon fill="#000000" stroke="#000000" points="3754.7706,-163.5001 3744.7706,-167 3754.7705,-170.5001 3754.7706,-163.5001"/>
</g>
<!-- QueryTemplateComponent -->
<g id="node13" class="node">
<title>QueryTemplateComponent</title>
<polygon fill="#ffffb3" stroke="#000000" points="5086.6825,-122 4917.3175,-122 4917.3175,-86 5086.6825,-86 5086.6825,-122"/>
<text text-anchor="middle" x="5002" y="-99.8" font-family="Times,serif" font-size="14.00" fill="#000000">QueryTemplateComponent</text>
</g>
<!-- QueryTemplateComponent&#45;&gt;AppModule -->
<g id="edge13" class="edge">
<title>QueryTemplateComponent&#45;&gt;AppModule</title>
<path fill="none" stroke="#000000" d="M5002,-122.302C5002,-140.2699 5002,-165 5002,-165 5002,-165 3754.7488,-165 3754.7488,-165"/>
<polygon fill="#000000" stroke="#000000" points="3754.7489,-161.5001 3744.7488,-165 3754.7488,-168.5001 3754.7489,-161.5001"/>
</g>
<!-- DclWrapperComponent -->
<g id="node14" class="node">
<title>DclWrapperComponent</title>
<polygon fill="#ffffb3" stroke="#000000" points="4899.01,-122 4748.99,-122 4748.99,-86 4899.01,-86 4899.01,-122"/>
<text text-anchor="middle" x="4824" y="-99.8" font-family="Times,serif" font-size="14.00" fill="#000000">DclWrapperComponent</text>
</g>
<!-- DclWrapperComponent&#45;&gt;AppModule -->
<g id="edge14" class="edge">
<title>DclWrapperComponent&#45;&gt;AppModule</title>
<path fill="none" stroke="#000000" d="M4824,-122.0225C4824,-139.3734 4824,-163 4824,-163 4824,-163 3754.8986,-163 3754.8986,-163"/>
<polygon fill="#000000" stroke="#000000" points="3754.8986,-159.5001 3744.8986,-163 3754.8986,-166.5001 3754.8986,-159.5001"/>
</g>
<!-- DashboardContainerComponent -->
<g id="node15" class="node">
<title>DashboardContainerComponent</title>
<polygon fill="#ffffb3" stroke="#000000" points="4730.6811,-122 4533.3189,-122 4533.3189,-86 4730.6811,-86 4730.6811,-122"/>
<text text-anchor="middle" x="4632" y="-99.8" font-family="Times,serif" font-size="14.00" fill="#000000">DashboardContainerComponent</text>
</g>
<!-- DashboardContainerComponent&#45;&gt;AppModule -->
<g id="edge15" class="edge">
<title>DashboardContainerComponent&#45;&gt;AppModule</title>
<path fill="none" stroke="#000000" d="M4632,-122.0336C4632,-139.0597 4632,-162 4632,-162 4632,-162 3754.722,-162 3754.722,-162"/>
<polygon fill="#000000" stroke="#000000" points="3754.722,-158.5001 3744.722,-162 3754.7219,-165.5001 3754.722,-158.5001"/>
</g>
<!-- MainComponent -->
<g id="node16" class="node">
<title>MainComponent</title>
<polygon fill="#ffffb3" stroke="#000000" points="4515.3823,-122 4404.6177,-122 4404.6177,-86 4515.3823,-86 4515.3823,-122"/>
<text text-anchor="middle" x="4460" y="-99.8" font-family="Times,serif" font-size="14.00" fill="#000000">MainComponent</text>
</g>
<!-- MainComponent&#45;&gt;AppModule -->
<g id="edge16" class="edge">
<title>MainComponent&#45;&gt;AppModule</title>
<path fill="none" stroke="#000000" d="M4460,-122.027C4460,-138.3976 4460,-160 4460,-160 4460,-160 3754.7779,-160 3754.7779,-160"/>
<polygon fill="#000000" stroke="#000000" points="3754.7779,-156.5001 3744.7779,-160 3754.7779,-163.5001 3754.7779,-156.5001"/>
</g>
<!-- UIconBtnComponent -->
<g id="node17" class="node">
<title>UIconBtnComponent</title>
<polygon fill="#ffffb3" stroke="#000000" points="4386.0422,-122 4249.9578,-122 4249.9578,-86 4386.0422,-86 4386.0422,-122"/>
<text text-anchor="middle" x="4318" y="-99.8" font-family="Times,serif" font-size="14.00" fill="#000000">UIconBtnComponent</text>
</g>
<!-- UIconBtnComponent&#45;&gt;AppModule -->
<g id="edge17" class="edge">
<title>UIconBtnComponent&#45;&gt;AppModule</title>
<path fill="none" stroke="#000000" d="M4318,-122.2819C4318,-137.9478 4318,-158 4318,-158 4318,-158 3754.7879,-158 3754.7879,-158"/>
<polygon fill="#000000" stroke="#000000" points="3754.788,-154.5001 3744.7879,-158 3754.7879,-161.5001 3754.788,-154.5001"/>
</g>
<!-- StartMenuComponent -->
<g id="node18" class="node">
<title>StartMenuComponent</title>
<polygon fill="#ffffb3" stroke="#000000" points="4232.4313,-122 4091.5687,-122 4091.5687,-86 4232.4313,-86 4232.4313,-122"/>
<text text-anchor="middle" x="4162" y="-99.8" font-family="Times,serif" font-size="14.00" fill="#000000">StartMenuComponent</text>
</g>
<!-- StartMenuComponent&#45;&gt;AppModule -->
<g id="edge18" class="edge">
<title>StartMenuComponent&#45;&gt;AppModule</title>
<path fill="none" stroke="#000000" d="M4162,-122.2396C4162,-137.5706 4162,-157 4162,-157 4162,-157 3754.95,-157 3754.95,-157"/>
<polygon fill="#000000" stroke="#000000" points="3754.95,-153.5001 3744.95,-157 3754.95,-160.5001 3754.95,-153.5001"/>
</g>
<!-- UPopupComponent -->
<g id="node19" class="node">
<title>UPopupComponent</title>
<polygon fill="#ffffb3" stroke="#000000" points="4073.7218,-122 3946.2782,-122 3946.2782,-86 4073.7218,-86 4073.7218,-122"/>
<text text-anchor="middle" x="4010" y="-99.8" font-family="Times,serif" font-size="14.00" fill="#000000">UPopupComponent</text>
</g>
<!-- UPopupComponent&#45;&gt;AppModule -->
<g id="edge19" class="edge">
<title>UPopupComponent&#45;&gt;AppModule</title>
<path fill="none" stroke="#000000" d="M4010,-122.1243C4010,-136.7832 4010,-155 4010,-155 4010,-155 3754.7229,-155 3754.7229,-155"/>
<polygon fill="#000000" stroke="#000000" points="3754.7229,-151.5001 3744.7229,-155 3754.7229,-158.5001 3754.7229,-151.5001"/>
</g>
<!-- UFormComponent -->
<g id="node20" class="node">
<title>UFormComponent</title>
<polygon fill="#ffffb3" stroke="#000000" points="3928.773,-122 3807.227,-122 3807.227,-86 3928.773,-86 3928.773,-122"/>
<text text-anchor="middle" x="3868" y="-99.8" font-family="Times,serif" font-size="14.00" fill="#000000">UFormComponent</text>
</g>
<!-- UFormComponent&#45;&gt;AppModule -->
<g id="edge20" class="edge">
<title>UFormComponent&#45;&gt;AppModule</title>
<path fill="none" stroke="#000000" d="M3868,-122.2458C3868,-136.1772 3868,-153 3868,-153 3868,-153 3755.0634,-153 3755.0634,-153"/>
<polygon fill="#000000" stroke="#000000" points="3755.0634,-149.5001 3745.0634,-153 3755.0634,-156.5001 3755.0634,-149.5001"/>
</g>
<!-- UserPreferencesComponent -->
<g id="node21" class="node">
<title>UserPreferencesComponent</title>
<polygon fill="#ffffb3" stroke="#000000" points="3789.5408,-122 3616.4592,-122 3616.4592,-86 3789.5408,-86 3789.5408,-122"/>
<text text-anchor="middle" x="3703" y="-99.8" font-family="Times,serif" font-size="14.00" fill="#000000">UserPreferencesComponent</text>
</g>
<!-- UserPreferencesComponent&#45;&gt;AppModule -->
<g id="edge21" class="edge">
<title>UserPreferencesComponent&#45;&gt;AppModule</title>
<path fill="none" stroke="#000000" d="M3703,-122.1061C3703,-122.1061 3703,-140.991 3703,-140.991"/>
<polygon fill="#000000" stroke="#000000" points="3699.5001,-140.9909 3703,-150.991 3706.5001,-140.991 3699.5001,-140.9909"/>
</g>
<!-- TemplateCreatorComponent -->
<g id="node22" class="node">
<title>TemplateCreatorComponent</title>
<polygon fill="#ffffb3" stroke="#000000" points="3598.1783,-122 3421.8217,-122 3421.8217,-86 3598.1783,-86 3598.1783,-122"/>
<text text-anchor="middle" x="3510" y="-99.8" font-family="Times,serif" font-size="14.00" fill="#000000">TemplateCreatorComponent</text>
</g>
<!-- TemplateCreatorComponent&#45;&gt;AppModule -->
<g id="edge22" class="edge">
<title>TemplateCreatorComponent&#45;&gt;AppModule</title>
<path fill="none" stroke="#000000" d="M3510,-122.2458C3510,-136.1772 3510,-153 3510,-153 3510,-153 3651.1219,-153 3651.1219,-153"/>
<polygon fill="#000000" stroke="#000000" points="3651.1219,-156.5001 3661.1219,-153 3651.1218,-149.5001 3651.1219,-156.5001"/>
</g>
<!-- ContainerTemplateComponent -->
<g id="node23" class="node">
<title>ContainerTemplateComponent</title>
<polygon fill="#ffffb3" stroke="#000000" points="3403.9086,-122 3214.0914,-122 3214.0914,-86 3403.9086,-86 3403.9086,-122"/>
<text text-anchor="middle" x="3309" y="-99.8" font-family="Times,serif" font-size="14.00" fill="#000000">ContainerTemplateComponent</text>
</g>
<!-- ContainerTemplateComponent&#45;&gt;AppModule -->
<g id="edge23" class="edge">
<title>ContainerTemplateComponent&#45;&gt;AppModule</title>
<path fill="none" stroke="#000000" d="M3309,-122.1243C3309,-136.7832 3309,-155 3309,-155 3309,-155 3651.2081,-155 3651.2081,-155"/>
<polygon fill="#000000" stroke="#000000" points="3651.2081,-158.5001 3661.2081,-155 3651.2081,-151.5001 3651.2081,-158.5001"/>
</g>
<!-- CounterGuageComponent -->
<g id="node24" class="node">
<title>CounterGuageComponent</title>
<polygon fill="#ffffb3" stroke="#000000" points="3196.4706,-122 3033.5294,-122 3033.5294,-86 3196.4706,-86 3196.4706,-122"/>
<text text-anchor="middle" x="3115" y="-99.8" font-family="Times,serif" font-size="14.00" fill="#000000">CounterGuageComponent</text>
</g>
<!-- CounterGuageComponent&#45;&gt;AppModule -->
<g id="edge24" class="edge">
<title>CounterGuageComponent&#45;&gt;AppModule</title>
<path fill="none" stroke="#000000" d="M3115,-122.2396C3115,-137.5706 3115,-157 3115,-157 3115,-157 3651.1839,-157 3651.1839,-157"/>
<polygon fill="#000000" stroke="#000000" points="3651.1839,-160.5001 3661.1839,-157 3651.1838,-153.5001 3651.1839,-160.5001"/>
</g>
<!-- RealtimeSplineComponent -->
<g id="node25" class="node">
<title>RealtimeSplineComponent</title>
<polygon fill="#ffffb3" stroke="#000000" points="3015.654,-122 2848.346,-122 2848.346,-86 3015.654,-86 3015.654,-122"/>
<text text-anchor="middle" x="2932" y="-99.8" font-family="Times,serif" font-size="14.00" fill="#000000">RealtimeSplineComponent</text>
</g>
<!-- RealtimeSplineComponent&#45;&gt;AppModule -->
<g id="edge25" class="edge">
<title>RealtimeSplineComponent&#45;&gt;AppModule</title>
<path fill="none" stroke="#000000" d="M2932,-122.2819C2932,-137.9478 2932,-158 2932,-158 2932,-158 3651.2743,-158 3651.2743,-158"/>
<polygon fill="#000000" stroke="#000000" points="3651.2744,-161.5001 3661.2743,-158 3651.2743,-154.5001 3651.2744,-161.5001"/>
</g>
<!-- AdvanceQueryTableComponent -->
<g id="node26" class="node">
<title>AdvanceQueryTableComponent</title>
<polygon fill="#ffffb3" stroke="#000000" points="2829.937,-122 2632.063,-122 2632.063,-86 2829.937,-86 2829.937,-122"/>
<text text-anchor="middle" x="2731" y="-99.8" font-family="Times,serif" font-size="14.00" fill="#000000">AdvanceQueryTableComponent</text>
</g>
<!-- AdvanceQueryTableComponent&#45;&gt;AppModule -->
<g id="edge26" class="edge">
<title>AdvanceQueryTableComponent&#45;&gt;AppModule</title>
<path fill="none" stroke="#000000" d="M2731,-122.027C2731,-138.3976 2731,-160 2731,-160 2731,-160 3651.2344,-160 3651.2344,-160"/>
<polygon fill="#000000" stroke="#000000" points="3651.2344,-163.5001 3661.2344,-160 3651.2343,-156.5001 3651.2344,-163.5001"/>
</g>
<!-- QueryContainerComponent -->
<g id="node27" class="node">
<title>QueryContainerComponent</title>
<polygon fill="#ffffb3" stroke="#000000" points="2613.5225,-122 2442.4775,-122 2442.4775,-86 2613.5225,-86 2613.5225,-122"/>
<text text-anchor="middle" x="2528" y="-99.8" font-family="Times,serif" font-size="14.00" fill="#000000">QueryContainerComponent</text>
</g>
<!-- QueryContainerComponent&#45;&gt;AppModule -->
<g id="edge27" class="edge">
<title>QueryContainerComponent&#45;&gt;AppModule</title>
<path fill="none" stroke="#000000" d="M2528,-122.0336C2528,-139.0597 2528,-162 2528,-162 2528,-162 3651.1811,-162 3651.1811,-162"/>
<polygon fill="#000000" stroke="#000000" points="3651.1812,-165.5001 3661.1811,-162 3651.1811,-158.5001 3651.1812,-165.5001"/>
</g>
<!-- MultiCountersComponent -->
<g id="node28" class="node">
<title>MultiCountersComponent</title>
<polygon fill="#ffffb3" stroke="#000000" points="2424.4958,-122 2261.5042,-122 2261.5042,-86 2424.4958,-86 2424.4958,-122"/>
<text text-anchor="middle" x="2343" y="-99.8" font-family="Times,serif" font-size="14.00" fill="#000000">MultiCountersComponent</text>
</g>
<!-- MultiCountersComponent&#45;&gt;AppModule -->
<g id="edge28" class="edge">
<title>MultiCountersComponent&#45;&gt;AppModule</title>
<path fill="none" stroke="#000000" d="M2343,-122.0225C2343,-139.3734 2343,-163 2343,-163 2343,-163 3651.1817,-163 3651.1817,-163"/>
<polygon fill="#000000" stroke="#000000" points="3651.1818,-166.5001 3661.1817,-163 3651.1817,-159.5001 3651.1818,-166.5001"/>
</g>
<!-- UPieChartComponent -->
<g id="node29" class="node">
<title>UPieChartComponent</title>
<polygon fill="#ffffb3" stroke="#000000" points="2243.4299,-122 2102.5701,-122 2102.5701,-86 2243.4299,-86 2243.4299,-122"/>
<text text-anchor="middle" x="2173" y="-99.8" font-family="Times,serif" font-size="14.00" fill="#000000">UPieChartComponent</text>
</g>
<!-- UPieChartComponent&#45;&gt;AppModule -->
<g id="edge29" class="edge">
<title>UPieChartComponent&#45;&gt;AppModule</title>
<path fill="none" stroke="#000000" d="M2173,-122.302C2173,-140.2699 2173,-165 2173,-165 2173,-165 3651.2827,-165 3651.2827,-165"/>
<polygon fill="#000000" stroke="#000000" points="3651.2827,-168.5001 3661.2827,-165 3651.2827,-161.5001 3651.2827,-168.5001"/>
</g>
<!-- SystemInfoComponent -->
<g id="node30" class="node">
<title>SystemInfoComponent</title>
<polygon fill="#ffffb3" stroke="#000000" points="2084.8767,-122 1939.1233,-122 1939.1233,-86 2084.8767,-86 2084.8767,-122"/>
<text text-anchor="middle" x="2012" y="-99.8" font-family="Times,serif" font-size="14.00" fill="#000000">SystemInfoComponent</text>
</g>
<!-- SystemInfoComponent&#45;&gt;AppModule -->
<g id="edge30" class="edge">
<title>SystemInfoComponent&#45;&gt;AppModule</title>
<path fill="none" stroke="#000000" d="M2012,-122.2222C2012,-140.8285 2012,-167 2012,-167 2012,-167 3651.1998,-167 3651.1998,-167"/>
<polygon fill="#000000" stroke="#000000" points="3651.1998,-170.5001 3661.1998,-167 3651.1997,-163.5001 3651.1998,-170.5001"/>
</g>
<!-- MainComponent  -->
<g id="node33" class="node">
<title>MainComponent </title>
<polygon fill="#80b1d3" stroke="#000000" points="3760.3828,-252 3645.6172,-252 3645.6172,-216 3760.3828,-216 3760.3828,-252"/>
<text text-anchor="middle" x="3703" y="-229.8" font-family="Times,serif" font-size="14.00" fill="#000000">MainComponent </text>
</g>
<!-- AppModule&#45;&gt;MainComponent  -->
<g id="edge32" class="edge">
<title>AppModule&#45;&gt;MainComponent </title>
<path fill="none" stroke="#000000" stroke-dasharray="1,5" d="M3703,-187.1061C3703,-187.1061 3703,-205.991 3703,-205.991"/>
<polygon fill="#000000" stroke="#000000" points="3699.5001,-205.9909 3703,-215.991 3706.5001,-205.991 3699.5001,-205.9909"/>
</g>
<!-- TpDepModule -->
<g id="node32" class="node">
<title>TpDepModule</title>
<polygon fill="#8dd3c7" stroke="#000000" points="1915.4245,-122 1912.4245,-126 1891.4245,-126 1888.4245,-122 1816.5755,-122 1816.5755,-86 1915.4245,-86 1915.4245,-122"/>
<text text-anchor="middle" x="1866" y="-99.8" font-family="Times,serif" font-size="14.00" fill="#000000">TpDepModule</text>
</g>
<!-- TpDepModule&#45;&gt;AppModule -->
<g id="edge31" class="edge">
<title>TpDepModule&#45;&gt;AppModule</title>
<path fill="none" stroke="#000000" d="M1866,-122.1061C1866,-141.3391 1866,-169 1866,-169 1866,-169 3651.1802,-169 3651.1802,-169"/>
<polygon fill="#000000" stroke="#000000" points="3651.1802,-172.5001 3661.1802,-169 3651.1801,-165.5001 3651.1802,-172.5001"/>
</g>
<!-- LogService -->
<g id="node34" class="node">
<title>LogService</title>
<ellipse fill="#fdb462" stroke="#000000" cx="1737" cy="-104" rx="55.5966" ry="18"/>
<text text-anchor="middle" x="1737" y="-99.8" font-family="Times,serif" font-size="14.00" fill="#000000">LogService</text>
</g>
<!-- LogService&#45;&gt;AppModule -->
<g id="edge33" class="edge">
<title>LogService&#45;&gt;AppModule</title>
<path fill="none" stroke="#000000" d="M1737,-122.0348C1737,-141.5762 1737,-170 1737,-170 1737,-170 3651.0278,-170 3651.0278,-170"/>
<polygon fill="#000000" stroke="#000000" points="3651.0278,-173.5001 3661.0278,-170 3651.0277,-166.5001 3651.0278,-173.5001"/>
</g>
<!-- HttpService -->
<g id="node35" class="node">
<title>HttpService</title>
<ellipse fill="#fdb462" stroke="#000000" cx="1606" cy="-104" rx="57.3185" ry="18"/>
<text text-anchor="middle" x="1606" y="-99.8" font-family="Times,serif" font-size="14.00" fill="#000000">HttpService</text>
</g>
<!-- HttpService&#45;&gt;AppModule -->
<g id="edge34" class="edge">
<title>HttpService&#45;&gt;AppModule</title>
<path fill="none" stroke="#000000" d="M1606,-122.2228C1606,-142.3652 1606,-172 1606,-172 1606,-172 3651.1116,-172 3651.1116,-172"/>
<polygon fill="#000000" stroke="#000000" points="3651.1117,-175.5001 3661.1116,-172 3651.1116,-168.5001 3651.1117,-175.5001"/>
</g>
<!-- IntervalService -->
<g id="node36" class="node">
<title>IntervalService</title>
<ellipse fill="#fdb462" stroke="#000000" cx="1461" cy="-104" rx="70.0384" ry="18"/>
<text text-anchor="middle" x="1461" y="-99.8" font-family="Times,serif" font-size="14.00" fill="#000000">IntervalService</text>
</g>
<!-- IntervalService&#45;&gt;AppModule -->
<g id="edge35" class="edge">
<title>IntervalService&#45;&gt;AppModule</title>
<path fill="none" stroke="#000000" d="M1461,-122.0267C1461,-142.7672 1461,-174 1461,-174 1461,-174 3651.1989,-174 3651.1989,-174"/>
<polygon fill="#000000" stroke="#000000" points="3651.199,-177.5001 3661.1989,-174 3651.1989,-170.5001 3651.199,-177.5001"/>
</g>
<!-- RefreshService -->
<g id="node37" class="node">
<title>RefreshService</title>
<ellipse fill="#fdb462" stroke="#000000" cx="1303" cy="-104" rx="70.0384" ry="18"/>
<text text-anchor="middle" x="1303" y="-99.8" font-family="Times,serif" font-size="14.00" fill="#000000">RefreshService</text>
</g>
<!-- RefreshService&#45;&gt;AppModule -->
<g id="edge36" class="edge">
<title>RefreshService&#45;&gt;AppModule</title>
<path fill="none" stroke="#000000" d="M1303,-122.2843C1303,-143.3211 1303,-175 1303,-175 1303,-175 3651.0899,-175 3651.0899,-175"/>
<polygon fill="#000000" stroke="#000000" points="3651.09,-178.5001 3661.0899,-175 3651.0899,-171.5001 3651.09,-178.5001"/>
</g>
<!-- ComponentStore -->
<g id="node38" class="node">
<title>ComponentStore</title>
<ellipse fill="#fdb462" stroke="#000000" cx="1138" cy="-104" rx="76.4671" ry="18"/>
<text text-anchor="middle" x="1138" y="-99.8" font-family="Times,serif" font-size="14.00" fill="#000000">ComponentStore</text>
</g>
<!-- ComponentStore&#45;&gt;AppModule -->
<g id="edge37" class="edge">
<title>ComponentStore&#45;&gt;AppModule</title>
<path fill="none" stroke="#000000" d="M1138,-122.0449C1138,-143.6623 1138,-177 1138,-177 1138,-177 3651.1469,-177 3651.1469,-177"/>
<polygon fill="#000000" stroke="#000000" points="3651.147,-180.5001 3661.1469,-177 3651.1469,-173.5001 3651.147,-180.5001"/>
</g>
<!-- PushChannelService -->
<g id="node39" class="node">
<title>PushChannelService</title>
<ellipse fill="#fdb462" stroke="#000000" cx="953" cy="-104" rx="90.9109" ry="18"/>
<text text-anchor="middle" x="953" y="-99.8" font-family="Times,serif" font-size="14.00" fill="#000000">PushChannelService</text>
</g>
<!-- PushChannelService&#45;&gt;AppModule -->
<g id="edge38" class="edge">
<title>PushChannelService&#45;&gt;AppModule</title>
<path fill="none" stroke="#000000" d="M953,-122.1554C953,-144.3519 953,-179 953,-179 953,-179 3651.1775,-179 3651.1775,-179"/>
<polygon fill="#000000" stroke="#000000" points="3651.1776,-182.5001 3661.1775,-179 3651.1775,-175.5001 3651.1776,-182.5001"/>
</g>
<!-- UserContextService -->
<g id="node40" class="node">
<title>UserContextService</title>
<ellipse fill="#fdb462" stroke="#000000" cx="755" cy="-104" rx="88.6005" ry="18"/>
<text text-anchor="middle" x="755" y="-99.8" font-family="Times,serif" font-size="14.00" fill="#000000">UserContextService</text>
</g>
<!-- UserContextService&#45;&gt;AppModule -->
<g id="edge39" class="edge">
<title>UserContextService&#45;&gt;AppModule</title>
<path fill="none" stroke="#000000" d="M755,-122.2479C755,-145.0179 755,-181 755,-181 755,-181 3651.3261,-181 3651.3261,-181"/>
<polygon fill="#000000" stroke="#000000" points="3651.3262,-184.5001 3661.3261,-181 3651.3261,-177.5001 3651.3262,-184.5001"/>
</g>
<!-- PopupDriverService -->
<g id="node41" class="node">
<title>PopupDriverService</title>
<ellipse fill="#fdb462" stroke="#000000" cx="558" cy="-104" rx="89.7479" ry="18"/>
<text text-anchor="middle" x="558" y="-99.8" font-family="Times,serif" font-size="14.00" fill="#000000">PopupDriverService</text>
</g>
<!-- PopupDriverService&#45;&gt;AppModule -->
<g id="edge40" class="edge">
<title>PopupDriverService&#45;&gt;AppModule</title>
<path fill="none" stroke="#000000" d="M558,-122.0908C558,-145.1328 558,-182 558,-182 558,-182 3651.2124,-182 3651.2124,-182"/>
<polygon fill="#000000" stroke="#000000" points="3651.2125,-185.5001 3661.2124,-182 3651.2124,-178.5001 3651.2125,-185.5001"/>
</g>
<!-- ThemeStoreService -->
<g id="node42" class="node">
<title>ThemeStoreService</title>
<ellipse fill="#fdb462" stroke="#000000" cx="363" cy="-104" rx="87.375" ry="18"/>
<text text-anchor="middle" x="363" y="-99.8" font-family="Times,serif" font-size="14.00" fill="#000000">ThemeStoreService</text>
</g>
<!-- ThemeStoreService&#45;&gt;AppModule -->
<g id="edge41" class="edge">
<title>ThemeStoreService&#45;&gt;AppModule</title>
<path fill="none" stroke="#000000" d="M363,-122.1532C363,-145.7566 363,-184 363,-184 363,-184 3651.0729,-184 3651.0729,-184"/>
<polygon fill="#000000" stroke="#000000" points="3651.0729,-187.5001 3661.0729,-184 3651.0728,-180.5001 3651.0729,-187.5001"/>
</g>
<!-- PermissionManagerService -->
<g id="node43" class="node">
<title>PermissionManagerService</title>
<ellipse fill="#fdb462" stroke="#000000" cx="141" cy="-104" rx="117.4509" ry="18"/>
<text text-anchor="middle" x="141" y="-99.8" font-family="Times,serif" font-size="14.00" fill="#000000">PermissionManagerService</text>
</g>
<!-- PermissionManagerService&#45;&gt;AppModule -->
<g id="edge42" class="edge">
<title>PermissionManagerService&#45;&gt;AppModule</title>
<path fill="none" stroke="#000000" d="M141,-122.1985C141,-146.3563 141,-186 141,-186 141,-186 3651.1427,-186 3651.1427,-186"/>
<polygon fill="#000000" stroke="#000000" points="3651.1427,-189.5001 3661.1427,-186 3651.1426,-182.5001 3651.1427,-189.5001"/>
</g>
</g>
</svg>
