<?xml version="1.0" encoding="UTF-8" standalone="no"?>
<!DOCTYPE svg PUBLIC "-//W3C//DTD SVG 1.1//EN"
 "http://www.w3.org/Graphics/SVG/1.1/DTD/svg11.dtd">
<!-- Generated by graphviz version 2.40.1 (20161225.0304)
 -->
<!-- Title: dependencies Pages: 1 -->
<svg width="7130pt" height="290pt"
 viewBox="0.00 0.00 7130.00 290.00" xmlns="http://www.w3.org/2000/svg" xmlns:xlink="http://www.w3.org/1999/xlink">
<g id="graph0" class="graph" transform="scale(1 1) rotate(0) translate(4 286)">
<title>dependencies</title>
<polygon fill="#ffffff" stroke="transparent" points="-4,4 -4,-286 7126,-286 7126,4 -4,4"/>
<text text-anchor="start" x="3540.0091" y="-42.4" font-family="sans-serif" font-weight="bold" font-size="14.00" fill="#000000">Legend</text>
<polygon fill="#ffffb3" stroke="transparent" points="3327,-10 3327,-30 3347,-30 3347,-10 3327,-10"/>
<text text-anchor="start" x="3350.629" y="-15.4" font-family="sans-serif" font-size="14.00" fill="#000000"> &#160;Declarations</text>
<polygon fill="#8dd3c7" stroke="transparent" points="3440,-10 3440,-30 3460,-30 3460,-10 3440,-10"/>
<text text-anchor="start" x="3463.7251" y="-15.4" font-family="sans-serif" font-size="14.00" fill="#000000"> &#160;Module</text>
<polygon fill="#80b1d3" stroke="transparent" points="3526,-10 3526,-30 3546,-30 3546,-10 3526,-10"/>
<text text-anchor="start" x="3549.7812" y="-15.4" font-family="sans-serif" font-size="14.00" fill="#000000"> &#160;Bootstrap</text>
<polygon fill="#fdb462" stroke="transparent" points="3623,-10 3623,-30 3643,-30 3643,-10 3623,-10"/>
<text text-anchor="start" x="3646.6732" y="-15.4" font-family="sans-serif" font-size="14.00" fill="#000000"> &#160;Providers</text>
<polygon fill="#fb8072" stroke="transparent" points="3719,-10 3719,-30 3739,-30 3739,-10 3719,-10"/>
<text text-anchor="start" x="3742.7258" y="-15.4" font-family="sans-serif" font-size="14.00" fill="#000000"> &#160;Exports</text>
<g id="clust1" class="cluster">
<title>cluster_AppModule</title>
<polygon fill="none" stroke="#000000" stroke-dasharray="1,5" points="8,-70 8,-274 6968,-274 6968,-70 8,-70"/>
</g>
<g id="clust2" class="cluster">
<title>cluster_AppModule_declarations</title>
<polygon fill="none" stroke="#000000" points="1809,-78 1809,-130 6838,-130 6838,-78 1809,-78"/>
</g>
<g id="clust33" class="cluster">
<title>cluster_AppModule_imports</title>
<polygon fill="none" stroke="#000000" points="6846,-78 6846,-130 6960,-130 6960,-78 6846,-78"/>
</g>
<g id="clust35" class="cluster">
<title>cluster_AppModule_bootstrap</title>
<polygon fill="none" stroke="#000000" points="3681,-214 3681,-266 3811,-266 3811,-214 3681,-214"/>
</g>
<g id="clust36" class="cluster">
<title>cluster_AppModule_providers</title>
<polygon fill="none" stroke="#000000" points="16,-78 16,-130 1801,-130 1801,-78 16,-78"/>
</g>
<g id="clust37" class="cluster">
<title>cluster_TpDepModule</title>
<polygon fill="none" stroke="#000000" stroke-dasharray="1,5" points="6976,-138 6976,-206 7114,-206 7114,-138 6976,-138"/>
</g>
<g id="clust40" class="cluster">
<title>cluster_TpDepModule_exports</title>
<polygon fill="none" stroke="#000000" points="6984,-146 6984,-198 7106,-198 7106,-146 6984,-146"/>
</g>
<!-- AppComponent -->
<g id="node1" class="node">
<title>AppComponent</title>
<polygon fill="#ffffb3" stroke="#000000" points="6829.9399,-122 6724.0601,-122 6724.0601,-86 6829.9399,-86 6829.9399,-122"/>
<text text-anchor="middle" x="6777" y="-99.8" font-family="Times,serif" font-size="14.00" fill="#000000">AppComponent</text>
</g>
<!-- AppModule -->
<g id="node31" class="node">
<title>AppModule</title>
<polygon fill="#8dd3c7" stroke="#000000" points="3787.6571,-190 3784.6571,-194 3763.6571,-194 3760.6571,-190 3704.3429,-190 3704.3429,-154 3787.6571,-154 3787.6571,-190"/>
<text text-anchor="middle" x="3746" y="-167.8" font-family="Times,serif" font-size="14.00" fill="#000000">AppModule</text>
</g>
<!-- AppComponent&#45;&gt;AppModule -->
<g id="edge1" class="edge">
<title>AppComponent&#45;&gt;AppModule</title>
<path fill="none" stroke="#000000" d="M6777,-122.1985C6777,-146.3563 6777,-186 6777,-186 6777,-186 3797.6937,-186 3797.6937,-186"/>
<polygon fill="#000000" stroke="#000000" points="3797.6937,-182.5001 3787.6937,-186 3797.6937,-189.5001 3797.6937,-182.5001"/>
</g>
<!-- BgCounterComponent -->
<g id="node2" class="node">
<title>BgCounterComponent</title>
<polygon fill="#ffffb3" stroke="#000000" points="6706.2716,-122 6563.7284,-122 6563.7284,-86 6706.2716,-86 6706.2716,-122"/>
<text text-anchor="middle" x="6635" y="-99.8" font-family="Times,serif" font-size="14.00" fill="#000000">BgCounterComponent</text>
</g>
<!-- BgCounterComponent&#45;&gt;AppModule -->
<g id="edge2" class="edge">
<title>BgCounterComponent&#45;&gt;AppModule</title>
<path fill="none" stroke="#000000" d="M6635,-122.1532C6635,-145.7566 6635,-184 6635,-184 6635,-184 3797.6737,-184 3797.6737,-184"/>
<polygon fill="#000000" stroke="#000000" points="3797.6737,-180.5001 3787.6737,-184 3797.6737,-187.5001 3797.6737,-180.5001"/>
</g>
<!-- SearchBoxComponent -->
<g id="node3" class="node">
<title>SearchBoxComponent</title>
<polygon fill="#ffffb3" stroke="#000000" points="6545.2562,-122 6402.7438,-122 6402.7438,-86 6545.2562,-86 6545.2562,-122"/>
<text text-anchor="middle" x="6474" y="-99.8" font-family="Times,serif" font-size="14.00" fill="#000000">SearchBoxComponent</text>
</g>
<!-- SearchBoxComponent&#45;&gt;AppModule -->
<g id="edge3" class="edge">
<title>SearchBoxComponent&#45;&gt;AppModule</title>
<path fill="none" stroke="#000000" d="M6474,-122.0908C6474,-145.1328 6474,-182 6474,-182 6474,-182 3797.7587,-182 3797.7587,-182"/>
<polygon fill="#000000" stroke="#000000" points="3797.7588,-178.5001 3787.7587,-182 3797.7587,-185.5001 3797.7588,-178.5001"/>
</g>
<!-- UGuageComponent -->
<g id="node4" class="node">
<title>UGuageComponent</title>
<polygon fill="#ffffb3" stroke="#000000" points="6384.9748,-122 6257.0252,-122 6257.0252,-86 6384.9748,-86 6384.9748,-122"/>
<text text-anchor="middle" x="6321" y="-99.8" font-family="Times,serif" font-size="14.00" fill="#000000">UGuageComponent</text>
</g>
<!-- UGuageComponent&#45;&gt;AppModule -->
<g id="edge4" class="edge">
<title>UGuageComponent&#45;&gt;AppModule</title>
<path fill="none" stroke="#000000" d="M6321,-122.2479C6321,-145.0179 6321,-181 6321,-181 6321,-181 3797.7528,-181 3797.7528,-181"/>
<polygon fill="#000000" stroke="#000000" points="3797.7528,-177.5001 3787.7528,-181 3797.7527,-184.5001 3797.7528,-177.5001"/>
</g>
<!-- FocusDirective -->
<g id="node5" class="node">
<title>FocusDirective</title>
<polygon fill="#ffffb3" stroke="#000000" points="6238.5257,-122 6137.4743,-122 6137.4743,-86 6238.5257,-86 6238.5257,-122"/>
<text text-anchor="middle" x="6188" y="-99.8" font-family="Times,serif" font-size="14.00" fill="#000000">FocusDirective</text>
</g>
<!-- FocusDirective&#45;&gt;AppModule -->
<g id="edge5" class="edge">
<title>FocusDirective&#45;&gt;AppModule</title>
<path fill="none" stroke="#000000" d="M6188,-122.1554C6188,-144.3519 6188,-179 6188,-179 6188,-179 3797.8717,-179 3797.8717,-179"/>
<polygon fill="#000000" stroke="#000000" points="3797.8717,-175.5001 3787.8717,-179 3797.8717,-182.5001 3797.8717,-175.5001"/>
</g>
<!-- UTableComponent -->
<g id="node6" class="node">
<title>UTableComponent</title>
<polygon fill="#ffffb3" stroke="#000000" points="6119.8118,-122 5996.1882,-122 5996.1882,-86 6119.8118,-86 6119.8118,-122"/>
<text text-anchor="middle" x="6058" y="-99.8" font-family="Times,serif" font-size="14.00" fill="#000000">UTableComponent</text>
</g>
<!-- UTableComponent&#45;&gt;AppModule -->
<g id="edge6" class="edge">
<title>UTableComponent&#45;&gt;AppModule</title>
<path fill="none" stroke="#000000" d="M6058,-122.0449C6058,-143.6623 6058,-177 6058,-177 6058,-177 3798.1027,-177 3798.1027,-177"/>
<polygon fill="#000000" stroke="#000000" points="3798.1027,-173.5001 3788.1027,-177 3798.1027,-180.5001 3798.1027,-173.5001"/>
</g>
<!-- USparklineComponent -->
<g id="node7" class="node">
<title>USparklineComponent</title>
<polygon fill="#ffffb3" stroke="#000000" points="5978.5926,-122 5833.4074,-122 5833.4074,-86 5978.5926,-86 5978.5926,-122"/>
<text text-anchor="middle" x="5906" y="-99.8" font-family="Times,serif" font-size="14.00" fill="#000000">USparklineComponent</text>
</g>
<!-- USparklineComponent&#45;&gt;AppModule -->
<g id="edge7" class="edge">
<title>USparklineComponent&#45;&gt;AppModule</title>
<path fill="none" stroke="#000000" d="M5906,-122.1686C5906,-143.498 5906,-176 5906,-176 5906,-176 3797.6979,-176 3797.6979,-176"/>
<polygon fill="#000000" stroke="#000000" points="3797.6979,-172.5001 3787.6979,-176 3797.6979,-179.5001 3797.6979,-172.5001"/>
</g>
<!-- USplineComponent -->
<g id="node8" class="node">
<title>USplineComponent</title>
<polygon fill="#ffffb3" stroke="#000000" points="5815.7176,-122 5688.2824,-122 5688.2824,-86 5815.7176,-86 5815.7176,-122"/>
<text text-anchor="middle" x="5752" y="-99.8" font-family="Times,serif" font-size="14.00" fill="#000000">USplineComponent</text>
</g>
<!-- USplineComponent&#45;&gt;AppModule -->
<g id="edge8" class="edge">
<title>USplineComponent&#45;&gt;AppModule</title>
<path fill="none" stroke="#000000" d="M5752,-122.0267C5752,-142.7672 5752,-174 5752,-174 5752,-174 3797.8982,-174 3797.8982,-174"/>
<polygon fill="#000000" stroke="#000000" points="3797.8982,-170.5001 3787.8982,-174 3797.8981,-177.5001 3797.8982,-170.5001"/>
</g>
<!-- UTextComponent -->
<g id="node9" class="node">
<title>UTextComponent</title>
<polygon fill="#ffffb3" stroke="#000000" points="5670.5968,-122 5553.4032,-122 5553.4032,-86 5670.5968,-86 5670.5968,-122"/>
<text text-anchor="middle" x="5612" y="-99.8" font-family="Times,serif" font-size="14.00" fill="#000000">UTextComponent</text>
</g>
<!-- UTextComponent&#45;&gt;AppModule -->
<g id="edge9" class="edge">
<title>UTextComponent&#45;&gt;AppModule</title>
<path fill="none" stroke="#000000" d="M5612,-122.2228C5612,-142.3652 5612,-172 5612,-172 5612,-172 3798.0341,-172 3798.0341,-172"/>
<polygon fill="#000000" stroke="#000000" points="3798.0341,-168.5001 3788.0341,-172 3798.034,-175.5001 3798.0341,-168.5001"/>
</g>
<!-- CounterSparklineComponent -->
<g id="node10" class="node">
<title>CounterSparklineComponent</title>
<polygon fill="#ffffb3" stroke="#000000" points="5535.0884,-122 5354.9116,-122 5354.9116,-86 5535.0884,-86 5535.0884,-122"/>
<text text-anchor="middle" x="5445" y="-99.8" font-family="Times,serif" font-size="14.00" fill="#000000">CounterSparklineComponent</text>
</g>
<!-- CounterSparklineComponent&#45;&gt;AppModule -->
<g id="edge10" class="edge">
<title>CounterSparklineComponent&#45;&gt;AppModule</title>
<path fill="none" stroke="#000000" d="M5445,-122.308C5445,-142.1455 5445,-171 5445,-171 5445,-171 3797.998,-171 3797.998,-171"/>
<polygon fill="#000000" stroke="#000000" points="3797.998,-167.5001 3787.998,-171 3797.998,-174.5001 3797.998,-167.5001"/>
</g>
<!-- BaseTemplateComponent -->
<g id="node11" class="node">
<title>BaseTemplateComponent</title>
<polygon fill="#ffffb3" stroke="#000000" points="5336.9115,-122 5175.0885,-122 5175.0885,-86 5336.9115,-86 5336.9115,-122"/>
<text text-anchor="middle" x="5256" y="-99.8" font-family="Times,serif" font-size="14.00" fill="#000000">BaseTemplateComponent</text>
</g>
<!-- BaseTemplateComponent&#45;&gt;AppModule -->
<g id="edge11" class="edge">
<title>BaseTemplateComponent&#45;&gt;AppModule</title>
<path fill="none" stroke="#000000" d="M5256,-122.1061C5256,-141.3391 5256,-169 5256,-169 5256,-169 3797.962,-169 3797.962,-169"/>
<polygon fill="#000000" stroke="#000000" points="3797.9621,-165.5001 3787.962,-169 3797.962,-172.5001 3797.9621,-165.5001"/>
</g>
<!-- WidgetTemplateComponent -->
<g id="node12" class="node">
<title>WidgetTemplateComponent</title>
<polygon fill="#ffffb3" stroke="#000000" points="5157.9115,-122 4982.0885,-122 4982.0885,-86 5157.9115,-86 5157.9115,-122"/>
<text text-anchor="middle" x="5070" y="-99.8" font-family="Times,serif" font-size="14.00" fill="#000000">WidgetTemplateComponent</text>
</g>
<!-- WidgetTemplateComponent&#45;&gt;AppModule -->
<g id="edge12" class="edge">
<title>WidgetTemplateComponent&#45;&gt;AppModule</title>
<path fill="none" stroke="#000000" d="M5070,-122.1686C5070,-141.0898 5070,-168 5070,-168 5070,-168 3797.8114,-168 3797.8114,-168"/>
<polygon fill="#000000" stroke="#000000" points="3797.8115,-164.5001 3787.8114,-168 3797.8114,-171.5001 3797.8115,-164.5001"/>
</g>
<!-- QueryTemplateComponent -->
<g id="node13" class="node">
<title>QueryTemplateComponent</title>
<polygon fill="#ffffb3" stroke="#000000" points="4964.6825,-122 4795.3175,-122 4795.3175,-86 4964.6825,-86 4964.6825,-122"/>
<text text-anchor="middle" x="4880" y="-99.8" font-family="Times,serif" font-size="14.00" fill="#000000">QueryTemplateComponent</text>
</g>
<!-- QueryTemplateComponent&#45;&gt;AppModule -->
<g id="edge13" class="edge">
<title>QueryTemplateComponent&#45;&gt;AppModule</title>
<path fill="none" stroke="#000000" d="M4880,-122.2667C4880,-140.5552 4880,-166 4880,-166 4880,-166 3797.7045,-166 3797.7045,-166"/>
<polygon fill="#000000" stroke="#000000" points="3797.7046,-162.5001 3787.7045,-166 3797.7045,-169.5001 3797.7046,-162.5001"/>
</g>
<!-- DclWrapperComponent -->
<g id="node14" class="node">
<title>DclWrapperComponent</title>
<polygon fill="#ffffb3" stroke="#000000" points="4777.01,-122 4626.99,-122 4626.99,-86 4777.01,-86 4777.01,-122"/>
<text text-anchor="middle" x="4702" y="-99.8" font-family="Times,serif" font-size="14.00" fill="#000000">DclWrapperComponent</text>
</g>
<!-- DclWrapperComponent&#45;&gt;AppModule -->
<g id="edge14" class="edge">
<title>DclWrapperComponent&#45;&gt;AppModule</title>
<path fill="none" stroke="#000000" d="M4702,-122.002C4702,-139.6754 4702,-164 4702,-164 4702,-164 3797.6928,-164 3797.6928,-164"/>
<polygon fill="#000000" stroke="#000000" points="3797.6929,-160.5001 3787.6928,-164 3797.6928,-167.5001 3797.6929,-160.5001"/>
</g>
<!-- DashboardContainerComponent -->
<g id="node15" class="node">
<title>DashboardContainerComponent</title>
<polygon fill="#ffffb3" stroke="#000000" points="4608.6811,-122 4411.3189,-122 4411.3189,-86 4608.6811,-86 4608.6811,-122"/>
<text text-anchor="middle" x="4510" y="-99.8" font-family="Times,serif" font-size="14.00" fill="#000000">DashboardContainerComponent</text>
</g>
<!-- DashboardContainerComponent&#45;&gt;AppModule -->
<g id="edge15" class="edge">
<title>DashboardContainerComponent&#45;&gt;AppModule</title>
<path fill="none" stroke="#000000" d="M4510,-122.0225C4510,-139.3734 4510,-163 4510,-163 4510,-163 3797.891,-163 3797.891,-163"/>
<polygon fill="#000000" stroke="#000000" points="3797.891,-159.5001 3787.891,-163 3797.8909,-166.5001 3797.891,-159.5001"/>
</g>
<!-- MainComponent -->
<g id="node16" class="node">
<title>MainComponent</title>
<polygon fill="#ffffb3" stroke="#000000" points="4393.3823,-122 4282.6177,-122 4282.6177,-86 4393.3823,-86 4393.3823,-122"/>
<text text-anchor="middle" x="4338" y="-99.8" font-family="Times,serif" font-size="14.00" fill="#000000">MainComponent</text>
</g>
<!-- MainComponent&#45;&gt;AppModule -->
<g id="edge16" class="edge">
<title>MainComponent&#45;&gt;AppModule</title>
<path fill="none" stroke="#000000" d="M4338,-122.0352C4338,-138.7344 4338,-161 4338,-161 4338,-161 3798.1006,-161 3798.1006,-161"/>
<polygon fill="#000000" stroke="#000000" points="3798.1006,-157.5001 3788.1006,-161 3798.1006,-164.5001 3798.1006,-157.5001"/>
</g>
<!-- UIconBtnComponent -->
<g id="node17" class="node">
<title>UIconBtnComponent</title>
<polygon fill="#ffffb3" stroke="#000000" points="4264.0422,-122 4127.9578,-122 4127.9578,-86 4264.0422,-86 4264.0422,-122"/>
<text text-anchor="middle" x="4196" y="-99.8" font-family="Times,serif" font-size="14.00" fill="#000000">UIconBtnComponent</text>
</g>
<!-- UIconBtnComponent&#45;&gt;AppModule -->
<g id="edge17" class="edge">
<title>UIconBtnComponent&#45;&gt;AppModule</title>
<path fill="none" stroke="#000000" d="M4196,-122.0091C4196,-138.0494 4196,-159 4196,-159 4196,-159 3797.9308,-159 3797.9308,-159"/>
<polygon fill="#000000" stroke="#000000" points="3797.9308,-155.5001 3787.9308,-159 3797.9308,-162.5001 3797.9308,-155.5001"/>
</g>
<!-- StartMenuComponent -->
<g id="node18" class="node">
<title>StartMenuComponent</title>
<polygon fill="#ffffb3" stroke="#000000" points="4110.4313,-122 3969.5687,-122 3969.5687,-86 4110.4313,-86 4110.4313,-122"/>
<text text-anchor="middle" x="4040" y="-99.8" font-family="Times,serif" font-size="14.00" fill="#000000">StartMenuComponent</text>
</g>
<!-- StartMenuComponent&#45;&gt;AppModule -->
<g id="edge18" class="edge">
<title>StartMenuComponent&#45;&gt;AppModule</title>
<path fill="none" stroke="#000000" d="M4040,-122.2819C4040,-137.9478 4040,-158 4040,-158 4040,-158 3797.8108,-158 3797.8108,-158"/>
<polygon fill="#000000" stroke="#000000" points="3797.8108,-154.5001 3787.8108,-158 3797.8108,-161.5001 3797.8108,-154.5001"/>
</g>
<!-- UPopupComponent -->
<g id="node19" class="node">
<title>UPopupComponent</title>
<polygon fill="#ffffb3" stroke="#000000" points="3951.7218,-122 3824.2782,-122 3824.2782,-86 3951.7218,-86 3951.7218,-122"/>
<text text-anchor="middle" x="3888" y="-99.8" font-family="Times,serif" font-size="14.00" fill="#000000">UPopupComponent</text>
</g>
<!-- UPopupComponent&#45;&gt;AppModule -->
<g id="edge19" class="edge">
<title>UPopupComponent&#45;&gt;AppModule</title>
<path fill="none" stroke="#000000" d="M3888,-122.1871C3888,-137.1824 3888,-156 3888,-156 3888,-156 3797.8367,-156 3797.8367,-156"/>
<polygon fill="#000000" stroke="#000000" points="3797.8367,-152.5001 3787.8367,-156 3797.8366,-159.5001 3797.8367,-152.5001"/>
</g>
<!-- UFormComponent -->
<g id="node20" class="node">
<title>UFormComponent</title>
<polygon fill="#ffffb3" stroke="#000000" points="3806.773,-122 3685.227,-122 3685.227,-86 3806.773,-86 3806.773,-122"/>
<text text-anchor="middle" x="3746" y="-99.8" font-family="Times,serif" font-size="14.00" fill="#000000">UFormComponent</text>
</g>
<!-- UFormComponent&#45;&gt;AppModule -->
<g id="edge20" class="edge">
<title>UFormComponent&#45;&gt;AppModule</title>
<path fill="none" stroke="#000000" d="M3746,-122.2228C3746,-122.2228 3746,-143.7269 3746,-143.7269"/>
<polygon fill="#000000" stroke="#000000" points="3742.5001,-143.7269 3746,-153.7269 3749.5001,-143.727 3742.5001,-143.7269"/>
</g>
<!-- UserPreferencesComponent -->
<g id="node21" class="node">
<title>UserPreferencesComponent</title>
<polygon fill="#ffffb3" stroke="#000000" points="3667.5408,-122 3494.4592,-122 3494.4592,-86 3667.5408,-86 3667.5408,-122"/>
<text text-anchor="middle" x="3581" y="-99.8" font-family="Times,serif" font-size="14.00" fill="#000000">UserPreferencesComponent</text>
</g>
<!-- UserPreferencesComponent&#45;&gt;AppModule -->
<g id="edge21" class="edge">
<title>UserPreferencesComponent&#45;&gt;AppModule</title>
<path fill="none" stroke="#000000" d="M3581,-122.1871C3581,-137.1824 3581,-156 3581,-156 3581,-156 3693.9366,-156 3693.9366,-156"/>
<polygon fill="#000000" stroke="#000000" points="3693.9366,-159.5001 3703.9366,-156 3693.9366,-152.5001 3693.9366,-159.5001"/>
</g>
<!-- TemplateCreatorComponent -->
<g id="node22" class="node">
<title>TemplateCreatorComponent</title>
<polygon fill="#ffffb3" stroke="#000000" points="3476.1783,-122 3299.8217,-122 3299.8217,-86 3476.1783,-86 3476.1783,-122"/>
<text text-anchor="middle" x="3388" y="-99.8" font-family="Times,serif" font-size="14.00" fill="#000000">TemplateCreatorComponent</text>
</g>
<!-- TemplateCreatorComponent&#45;&gt;AppModule -->
<g id="edge22" class="edge">
<title>TemplateCreatorComponent&#45;&gt;AppModule</title>
<path fill="none" stroke="#000000" d="M3388,-122.2819C3388,-137.9478 3388,-158 3388,-158 3388,-158 3694.2322,-158 3694.2322,-158"/>
<polygon fill="#000000" stroke="#000000" points="3694.2322,-161.5001 3704.2322,-158 3694.2322,-154.5001 3694.2322,-161.5001"/>
</g>
<!-- ContainerTemplateComponent -->
<g id="node23" class="node">
<title>ContainerTemplateComponent</title>
<polygon fill="#ffffb3" stroke="#000000" points="3281.9086,-122 3092.0914,-122 3092.0914,-86 3281.9086,-86 3281.9086,-122"/>
<text text-anchor="middle" x="3187" y="-99.8" font-family="Times,serif" font-size="14.00" fill="#000000">ContainerTemplateComponent</text>
</g>
<!-- ContainerTemplateComponent&#45;&gt;AppModule -->
<g id="edge23" class="edge">
<title>ContainerTemplateComponent&#45;&gt;AppModule</title>
<path fill="none" stroke="#000000" d="M3187,-122.027C3187,-138.3976 3187,-160 3187,-160 3187,-160 3693.9841,-160 3693.9841,-160"/>
<polygon fill="#000000" stroke="#000000" points="3693.9842,-163.5001 3703.9841,-160 3693.9841,-156.5001 3693.9842,-163.5001"/>
</g>
<!-- CounterGuageComponent -->
<g id="node24" class="node">
<title>CounterGuageComponent</title>
<polygon fill="#ffffb3" stroke="#000000" points="3074.4706,-122 2911.5294,-122 2911.5294,-86 3074.4706,-86 3074.4706,-122"/>
<text text-anchor="middle" x="2993" y="-99.8" font-family="Times,serif" font-size="14.00" fill="#000000">CounterGuageComponent</text>
</g>
<!-- CounterGuageComponent&#45;&gt;AppModule -->
<g id="edge24" class="edge">
<title>CounterGuageComponent&#45;&gt;AppModule</title>
<path fill="none" stroke="#000000" d="M2993,-122.0352C2993,-138.7344 2993,-161 2993,-161 2993,-161 3694.1728,-161 3694.1728,-161"/>
<polygon fill="#000000" stroke="#000000" points="3694.1728,-164.5001 3704.1728,-161 3694.1728,-157.5001 3694.1728,-164.5001"/>
</g>
<!-- RealtimeSplineComponent -->
<g id="node25" class="node">
<title>RealtimeSplineComponent</title>
<polygon fill="#ffffb3" stroke="#000000" points="2893.654,-122 2726.346,-122 2726.346,-86 2893.654,-86 2893.654,-122"/>
<text text-anchor="middle" x="2810" y="-99.8" font-family="Times,serif" font-size="14.00" fill="#000000">RealtimeSplineComponent</text>
</g>
<!-- RealtimeSplineComponent&#45;&gt;AppModule -->
<g id="edge25" class="edge">
<title>RealtimeSplineComponent&#45;&gt;AppModule</title>
<path fill="none" stroke="#000000" d="M2810,-122.0225C2810,-139.3734 2810,-163 2810,-163 2810,-163 3694.2691,-163 3694.2691,-163"/>
<polygon fill="#000000" stroke="#000000" points="3694.2691,-166.5001 3704.2691,-163 3694.2691,-159.5001 3694.2691,-166.5001"/>
</g>
<!-- AdvanceQueryTableComponent -->
<g id="node26" class="node">
<title>AdvanceQueryTableComponent</title>
<polygon fill="#ffffb3" stroke="#000000" points="2707.937,-122 2510.063,-122 2510.063,-86 2707.937,-86 2707.937,-122"/>
<text text-anchor="middle" x="2609" y="-99.8" font-family="Times,serif" font-size="14.00" fill="#000000">AdvanceQueryTableComponent</text>
</g>
<!-- AdvanceQueryTableComponent&#45;&gt;AppModule -->
<g id="edge26" class="edge">
<title>AdvanceQueryTableComponent&#45;&gt;AppModule</title>
<path fill="none" stroke="#000000" d="M2609,-122.302C2609,-140.2699 2609,-165 2609,-165 2609,-165 3694.1851,-165 3694.1851,-165"/>
<polygon fill="#000000" stroke="#000000" points="3694.1852,-168.5001 3704.1851,-165 3694.1851,-161.5001 3694.1852,-168.5001"/>
</g>
<!-- QueryContainerComponent -->
<g id="node27" class="node">
<title>QueryContainerComponent</title>
<polygon fill="#ffffb3" stroke="#000000" points="2491.5225,-122 2320.4775,-122 2320.4775,-86 2491.5225,-86 2491.5225,-122"/>
<text text-anchor="middle" x="2406" y="-99.8" font-family="Times,serif" font-size="14.00" fill="#000000">QueryContainerComponent</text>
</g>
<!-- QueryContainerComponent&#45;&gt;AppModule -->
<g id="edge27" class="edge">
<title>QueryContainerComponent&#45;&gt;AppModule</title>
<path fill="none" stroke="#000000" d="M2406,-122.2667C2406,-140.5552 2406,-166 2406,-166 2406,-166 3694.0559,-166 3694.0559,-166"/>
<polygon fill="#000000" stroke="#000000" points="3694.056,-169.5001 3704.0559,-166 3694.0559,-162.5001 3694.056,-169.5001"/>
</g>
<!-- MultiCountersComponent -->
<g id="node28" class="node">
<title>MultiCountersComponent</title>
<polygon fill="#ffffb3" stroke="#000000" points="2302.4958,-122 2139.5042,-122 2139.5042,-86 2302.4958,-86 2302.4958,-122"/>
<text text-anchor="middle" x="2221" y="-99.8" font-family="Times,serif" font-size="14.00" fill="#000000">MultiCountersComponent</text>
</g>
<!-- MultiCountersComponent&#45;&gt;AppModule -->
<g id="edge28" class="edge">
<title>MultiCountersComponent&#45;&gt;AppModule</title>
<path fill="none" stroke="#000000" d="M2221,-122.1686C2221,-141.0898 2221,-168 2221,-168 2221,-168 3694.0209,-168 3694.0209,-168"/>
<polygon fill="#000000" stroke="#000000" points="3694.021,-171.5001 3704.0209,-168 3694.0209,-164.5001 3694.021,-171.5001"/>
</g>
<!-- UPieChartComponent -->
<g id="node29" class="node">
<title>UPieChartComponent</title>
<polygon fill="#ffffb3" stroke="#000000" points="2121.4299,-122 1980.5701,-122 1980.5701,-86 2121.4299,-86 2121.4299,-122"/>
<text text-anchor="middle" x="2051" y="-99.8" font-family="Times,serif" font-size="14.00" fill="#000000">UPieChartComponent</text>
</g>
<!-- UPieChartComponent&#45;&gt;AppModule -->
<g id="edge29" class="edge">
<title>UPieChartComponent&#45;&gt;AppModule</title>
<path fill="none" stroke="#000000" d="M2051,-122.0348C2051,-141.5762 2051,-170 2051,-170 2051,-170 3694.1009,-170 3694.1009,-170"/>
<polygon fill="#000000" stroke="#000000" points="3694.1009,-173.5001 3704.1009,-170 3694.1009,-166.5001 3694.1009,-173.5001"/>
</g>
<!-- SystemInfoComponent -->
<g id="node30" class="node">
<title>SystemInfoComponent</title>
<polygon fill="#ffffb3" stroke="#000000" points="1962.8767,-122 1817.1233,-122 1817.1233,-86 1962.8767,-86 1962.8767,-122"/>
<text text-anchor="middle" x="1890" y="-99.8" font-family="Times,serif" font-size="14.00" fill="#000000">SystemInfoComponent</text>
</g>
<!-- SystemInfoComponent&#45;&gt;AppModule -->
<g id="edge30" class="edge">
<title>SystemInfoComponent&#45;&gt;AppModule</title>
<path fill="none" stroke="#000000" d="M1890,-122.2228C1890,-142.3652 1890,-172 1890,-172 1890,-172 3694.1912,-172 3694.1912,-172"/>
<polygon fill="#000000" stroke="#000000" points="3694.1912,-175.5001 3704.1912,-172 3694.1912,-168.5001 3694.1912,-175.5001"/>
</g>
<!-- MainComponent  -->
<g id="node33" class="node">
<title>MainComponent </title>
<polygon fill="#80b1d3" stroke="#000000" points="3803.3828,-258 3688.6172,-258 3688.6172,-222 3803.3828,-222 3803.3828,-258"/>
<text text-anchor="middle" x="3746" y="-235.8" font-family="Times,serif" font-size="14.00" fill="#000000">MainComponent </text>
</g>
<!-- AppModule&#45;&gt;MainComponent  -->
<g id="edge32" class="edge">
<title>AppModule&#45;&gt;MainComponent </title>
<path fill="none" stroke="#000000" stroke-dasharray="1,5" d="M3746,-190.2228C3746,-190.2228 3746,-211.7269 3746,-211.7269"/>
<polygon fill="#000000" stroke="#000000" points="3742.5001,-211.7269 3746,-221.7269 3749.5001,-211.727 3742.5001,-211.7269"/>
</g>
<!-- TpDepModule -->
<g id="node32" class="node">
<title>TpDepModule</title>
<polygon fill="#8dd3c7" stroke="#000000" points="6952.4245,-122 6949.4245,-126 6928.4245,-126 6925.4245,-122 6853.5755,-122 6853.5755,-86 6952.4245,-86 6952.4245,-122"/>
<text text-anchor="middle" x="6903" y="-99.8" font-family="Times,serif" font-size="14.00" fill="#000000">TpDepModule</text>
</g>
<!-- TpDepModule&#45;&gt;AppModule -->
<g id="edge31" class="edge">
<title>TpDepModule&#45;&gt;AppModule</title>
<path fill="none" stroke="#000000" d="M6886.5961,-122.0098C6886.5961,-146.4207 6886.5961,-187 6886.5961,-187 6886.5961,-187 3797.7291,-187 3797.7291,-187"/>
<polygon fill="#000000" stroke="#000000" points="3797.7291,-183.5001 3787.7291,-187 3797.729,-190.5001 3797.7291,-183.5001"/>
</g>
<!-- Ng2Permission  -->
<g id="node44" class="node">
<title>Ng2Permission </title>
<polygon fill="#fb8072" stroke="#000000" points="7097.8255,-190 6992.1745,-190 6992.1745,-154 7097.8255,-154 7097.8255,-190"/>
<text text-anchor="middle" x="7045" y="-167.8" font-family="Times,serif" font-size="14.00" fill="#000000">Ng2Permission </text>
</g>
<!-- TpDepModule&#45;&gt;Ng2Permission  -->
<g id="edge43" class="edge">
<title>TpDepModule&#45;&gt;Ng2Permission </title>
<path fill="none" stroke="#000000" stroke-dasharray="5,2" d="M6919.4039,-122.0263C6919.4039,-146.9773 6919.4039,-189 6919.4039,-189 6919.4039,-189 6982.1,-189 6982.1,-189"/>
<polygon fill="#000000" stroke="#000000" points="6982.1,-192.5001 6992.1,-189 6982.0999,-185.5001 6982.1,-192.5001"/>
</g>
<!-- LogService -->
<g id="node34" class="node">
<title>LogService</title>
<ellipse fill="#fdb462" stroke="#000000" cx="1737" cy="-104" rx="55.5966" ry="18"/>
<text text-anchor="middle" x="1737" y="-99.8" font-family="Times,serif" font-size="14.00" fill="#000000">LogService</text>
</g>
<!-- LogService&#45;&gt;AppModule -->
<g id="edge33" class="edge">
<title>LogService&#45;&gt;AppModule</title>
<path fill="none" stroke="#000000" d="M1737,-122.1289C1737,-142.5724 1737,-173 1737,-173 1737,-173 3694.0392,-173 3694.0392,-173"/>
<polygon fill="#000000" stroke="#000000" points="3694.0392,-176.5001 3704.0392,-173 3694.0391,-169.5001 3694.0392,-176.5001"/>
</g>
<!-- HttpService -->
<g id="node35" class="node">
<title>HttpService</title>
<ellipse fill="#fdb462" stroke="#000000" cx="1606" cy="-104" rx="57.3185" ry="18"/>
<text text-anchor="middle" x="1606" y="-99.8" font-family="Times,serif" font-size="14.00" fill="#000000">HttpService</text>
</g>
<!-- HttpService&#45;&gt;AppModule -->
<g id="edge34" class="edge">
<title>HttpService&#45;&gt;AppModule</title>
<path fill="none" stroke="#000000" d="M1606,-122.2843C1606,-143.3211 1606,-175 1606,-175 1606,-175 3694.2122,-175 3694.2122,-175"/>
<polygon fill="#000000" stroke="#000000" points="3694.2123,-178.5001 3704.2122,-175 3694.2122,-171.5001 3694.2123,-178.5001"/>
</g>
<!-- IntervalService -->
<g id="node36" class="node">
<title>IntervalService</title>
<ellipse fill="#fdb462" stroke="#000000" cx="1461" cy="-104" rx="70.0384" ry="18"/>
<text text-anchor="middle" x="1461" y="-99.8" font-family="Times,serif" font-size="14.00" fill="#000000">IntervalService</text>
</g>
<!-- IntervalService&#45;&gt;AppModule -->
<g id="edge35" class="edge">
<title>IntervalService&#45;&gt;AppModule</title>
<path fill="none" stroke="#000000" d="M1461,-122.0449C1461,-143.6623 1461,-177 1461,-177 1461,-177 3693.8945,-177 3693.8945,-177"/>
<polygon fill="#000000" stroke="#000000" points="3693.8945,-180.5001 3703.8945,-177 3693.8944,-173.5001 3693.8945,-180.5001"/>
</g>
<!-- RefreshService -->
<g id="node37" class="node">
<title>RefreshService</title>
<ellipse fill="#fdb462" stroke="#000000" cx="1303" cy="-104" rx="70.0384" ry="18"/>
<text text-anchor="middle" x="1303" y="-99.8" font-family="Times,serif" font-size="14.00" fill="#000000">RefreshService</text>
</g>
<!-- RefreshService&#45;&gt;AppModule -->
<g id="edge36" class="edge">
<title>RefreshService&#45;&gt;AppModule</title>
<path fill="none" stroke="#000000" d="M1303,-122.2921C1303,-144.2057 1303,-178 1303,-178 1303,-178 3694.1112,-178 3694.1112,-178"/>
<polygon fill="#000000" stroke="#000000" points="3694.1112,-181.5001 3704.1112,-178 3694.1111,-174.5001 3694.1112,-181.5001"/>
</g>
<!-- ComponentStore -->
<g id="node38" class="node">
<title>ComponentStore</title>
<ellipse fill="#fdb462" stroke="#000000" cx="1138" cy="-104" rx="76.4671" ry="18"/>
<text text-anchor="middle" x="1138" y="-99.8" font-family="Times,serif" font-size="14.00" fill="#000000">ComponentStore</text>
</g>
<!-- ComponentStore&#45;&gt;AppModule -->
<g id="edge37" class="edge">
<title>ComponentStore&#45;&gt;AppModule</title>
<path fill="none" stroke="#000000" d="M1138,-122.0109C1138,-144.4852 1138,-180 1138,-180 1138,-180 3694.2435,-180 3694.2435,-180"/>
<polygon fill="#000000" stroke="#000000" points="3694.2435,-183.5001 3704.2435,-180 3694.2435,-176.5001 3694.2435,-183.5001"/>
</g>
<!-- PushChannelService -->
<g id="node39" class="node">
<title>PushChannelService</title>
<ellipse fill="#fdb462" stroke="#000000" cx="953" cy="-104" rx="90.9109" ry="18"/>
<text text-anchor="middle" x="953" y="-99.8" font-family="Times,serif" font-size="14.00" fill="#000000">PushChannelService</text>
</g>
<!-- PushChannelService&#45;&gt;AppModule -->
<g id="edge38" class="edge">
<title>PushChannelService&#45;&gt;AppModule</title>
<path fill="none" stroke="#000000" d="M953,-122.0908C953,-145.1328 953,-182 953,-182 953,-182 3694.0756,-182 3694.0756,-182"/>
<polygon fill="#000000" stroke="#000000" points="3694.0756,-185.5001 3704.0756,-182 3694.0755,-178.5001 3694.0756,-185.5001"/>
</g>
<!-- UserContextService -->
<g id="node40" class="node">
<title>UserContextService</title>
<ellipse fill="#fdb462" stroke="#000000" cx="755" cy="-104" rx="88.6005" ry="18"/>
<text text-anchor="middle" x="755" y="-99.8" font-family="Times,serif" font-size="14.00" fill="#000000">UserContextService</text>
</g>
<!-- UserContextService&#45;&gt;AppModule -->
<g id="edge39" class="edge">
<title>UserContextService&#45;&gt;AppModule</title>
<path fill="none" stroke="#000000" d="M755,-122.1532C755,-145.7566 755,-184 755,-184 755,-184 3694.2893,-184 3694.2893,-184"/>
<polygon fill="#000000" stroke="#000000" points="3694.2893,-187.5001 3704.2893,-184 3694.2892,-180.5001 3694.2893,-187.5001"/>
</g>
<!-- PopupDriverService -->
<g id="node41" class="node">
<title>PopupDriverService</title>
<ellipse fill="#fdb462" stroke="#000000" cx="558" cy="-104" rx="89.7479" ry="18"/>
<text text-anchor="middle" x="558" y="-99.8" font-family="Times,serif" font-size="14.00" fill="#000000">PopupDriverService</text>
</g>
<!-- PopupDriverService&#45;&gt;AppModule -->
<g id="edge40" class="edge">
<title>PopupDriverService&#45;&gt;AppModule</title>
<path fill="none" stroke="#000000" d="M558,-122.3802C558,-146.2785 558,-185 558,-185 558,-185 3694.232,-185 3694.232,-185"/>
<polygon fill="#000000" stroke="#000000" points="3694.232,-188.5001 3704.232,-185 3694.2319,-181.5001 3694.232,-188.5001"/>
</g>
<!-- ThemeStoreService -->
<g id="node42" class="node">
<title>ThemeStoreService</title>
<ellipse fill="#fdb462" stroke="#000000" cx="363" cy="-104" rx="87.375" ry="18"/>
<text text-anchor="middle" x="363" y="-99.8" font-family="Times,serif" font-size="14.00" fill="#000000">ThemeStoreService</text>
</g>
<!-- ThemeStoreService&#45;&gt;AppModule -->
<g id="edge41" class="edge">
<title>ThemeStoreService&#45;&gt;AppModule</title>
<path fill="none" stroke="#000000" d="M363,-122.0098C363,-146.4207 363,-187 363,-187 363,-187 3694.1433,-187 3694.1433,-187"/>
<polygon fill="#000000" stroke="#000000" points="3694.1434,-190.5001 3704.1433,-187 3694.1433,-183.5001 3694.1434,-190.5001"/>
</g>
<!-- PermissionManagerService -->
<g id="node43" class="node">
<title>PermissionManagerService</title>
<ellipse fill="#fdb462" stroke="#000000" cx="141" cy="-104" rx="117.4509" ry="18"/>
<text text-anchor="middle" x="141" y="-99.8" font-family="Times,serif" font-size="14.00" fill="#000000">PermissionManagerService</text>
</g>
<!-- PermissionManagerService&#45;&gt;AppModule -->
<g id="edge42" class="edge">
<title>PermissionManagerService&#45;&gt;AppModule</title>
<path fill="none" stroke="#000000" d="M141,-122.0263C141,-146.9773 141,-189 141,-189 141,-189 3694.2675,-189 3694.2675,-189"/>
<polygon fill="#000000" stroke="#000000" points="3694.2675,-192.5001 3704.2675,-189 3694.2674,-185.5001 3694.2675,-192.5001"/>
</g>
</g>
</svg>
